<svg xmlns="http://www.w3.org/2000/svg" viewBox="0 0 2421.79 1467.88"><defs><style>.cls-1{fill:#bdd1ff;}.cls-2{fill:#283689;}.cls-3{fill:#8fa6ef;}.cls-4{fill:#505aba;}.cls-5{fill:#2b478b;}.cls-6{fill:#778de8;}.cls-7{fill:#e27227;}.cls-8{fill:#1c3870;}.cls-9{fill:#8c9df4;}.cls-10{fill:#1b376d;}.cls-11{fill:#f99746;}.cls-12{opacity:0.7;}.cls-13{fill:#d86713;}.cls-14{fill:#a8d29f;}.cls-15{fill:#82b378;}.cls-16{opacity:0.1;}.cls-17{fill:#dde7fe;}.cls-18{fill:#ebf2f9;}.cls-19{fill:#d5e5fb;}.cls-20{fill:#e2eefd;}.cls-21{fill:#9db0f4;}.cls-22{fill:#afcdfb;}.cls-23{fill:#aec3ff;}.cls-24{fill:#819dea;}.cls-25{fill:#c5d7ff;}.cls-26{fill:#d36d1a;}.cls-27{fill:#f49540;}.cls-28{fill:#ffa255;}.cls-29{fill:#f8fcff;}.cls-30{opacity:0.5;}.cls-31{fill:#ed7d2b;}.cls-32{fill:#131375;}.cls-33{fill:#060633;}.cls-34{fill:#829ce8;}.cls-35{fill:#ed975d;}.cls-36{fill:#ffb27d;}.cls-37{fill:#a9453d;}.cls-38{fill:#7a96e5;}.cls-39{fill:#233862;}.cls-40{fill:#ef873a;}.cls-41{fill:#f77d48;}.cls-42{fill:#15156d;}.cls-43{fill:#fa7267;}.cls-44{fill:#17152b;}.cls-45{opacity:0.3;}.cls-46{fill:#ea9963;}.cls-47{fill:#6980e2;}.cls-48{fill:#9fb1ff;}.cls-49{fill:#182d4c;}.cls-50{fill:#ffb583;}.cls-51{fill:#ea6c2d;}.cls-52{fill:#95c38b;}.cls-53{fill:#b5453c;}.cls-54{fill:#efcbab;}.cls-55{fill:#699dee;}.cls-56{fill:#548ee2;}</style></defs><title>Asset 1</title><g id="Layer_2" data-name="Layer 2"><g id="_Layer_" data-name="&lt;Layer&gt;"><path class="cls-1" d="M2373.9,1328.1c-6.18,11.31-12.37,21.36-18.19,30.06l-.52.78a90.64,90.64,0,0,1-75.26,40.08c-161.8,0-720.26,0-894.32-.09,0,0-913.16-2.59-1198.81-3.52a141.65,141.65,0,0,1-129-84.38C32.07,1253,4.19,1169.39,1,1074.64-4.19,924.3,52.73,745.89,278.76,597.08,473,469.19,266.6,384.78,421.06,242.4c177.49-163.59,371.21,17.39,568.59-56.8,34.87-13.09,69.87-34.17,104.89-66.51A385.26,385.26,0,0,1,1159,71.25c3.55-2.11,7.13-4.16,10.76-6.18a449.25,449.25,0,0,1,43-20.87q14.91-6.26,30.38-11.61c16.36-5.65,33.19-10.52,50.35-14.64a632.38,632.38,0,0,1,75.08-13.18q16.76-1.95,33.77-3.06C1622.89-13.12,1871.09,70.22,1999.18,192c25.78,24.54,143,151.45,50.62,325.89-58.36,110.14,186.12,215.33,273,341.1,54.36,78.69,82.17,151.09,93.17,215.62C2434.79,1184.83,2404.58,1272,2373.9,1328.1Z"/><path class="cls-2" d="M826.16,1074.94l-4.74-.61a50.31,50.31,0,0,1,22.78-33.56c17.54-11.11,11.55-45.8,11.49-46.15l4.7-.85a90.88,90.88,0,0,1,.93,20.35c-1,14.7-6.07,25.31-14.57,30.69A46,46,0,0,0,826.16,1074.94Z"/><path class="cls-2" d="M856.73,1075.78c-.11-.21-11.64-21.86,9.15-35,17.18-10.87,1.93-44.6,1.78-44.94l4.34-2a87,87,0,0,1,6,20c2.42,14.73-.89,25.42-9.59,30.93-17.05,10.78-7.91,28-7.51,28.68Z"/><path class="cls-3" d="M2374.14,1379.23l-1.2,2.68c-.8,1.77-1.59,3.52-2.4,5.24-5.37,11.6-10.72,22-15.79,31.2l-.51.94c-16.84,30.4-45.07,48.59-75.27,48.59l-331.07,0h-19.12c-76.45,0-156.26,0-231.69,0h-22.54c-121.35,0-229.08,0-289.9-.06,0,0-305.79-1-618.82-2.15l-15.9-.06-266.55-1-32.28-.12c-108-.38-202-.73-265.25-1-44.28-.17-85.15-25.38-111.48-66.65q-2.09-3.25-4-6.66a184.13,184.13,0,0,1-13.49-29C31.11,1290.86,3.23,1189.5,0,1074.64H2415C2433.58,1206.48,2404.4,1311.13,2374.14,1379.23Z"/><polygon class="cls-4" points="1851.18 1316.06 493.19 1316.06 630.06 1176.63 1731.9 1176.63 1851.18 1316.06"/><rect class="cls-5" x="493.19" y="1316.06" width="1357.98" height="17.81"/><rect class="cls-5" x="637.89" y="1205.87" width="1082.34" height="4.75"/><rect class="cls-5" x="601.2" y="1235" width="1148.06" height="4.76"/><rect class="cls-5" x="570.63" y="1267.2" width="1209.21" height="4.75"/><rect class="cls-5" x="643.38" y="1184.4" width="48.93" height="14.68"/><rect class="cls-5" x="1018.21" y="1184.4" width="48.94" height="14.68"/><rect class="cls-5" x="1096.91" y="1184.4" width="48.94" height="14.68"/><rect class="cls-5" x="1306.13" y="1184.4" width="48.93" height="14.68"/><rect class="cls-5" x="1378.9" y="1184.4" width="48.94" height="14.68"/><rect class="cls-5" x="1457.6" y="1184.4" width="48.93" height="14.68"/><path class="cls-5" d="M2356,1074.64h-9.61c-21.7-31.72-40.5-33.19-76.93-36-11.21-.86-23.92-1.85-38.81-3.85-33.19-4.46-44.1-22.27-56.72-42.9-5.73-9.35-11.63-19-20.25-28.76-26.5-30-86-21.22-86.64-21.13l-1.23-7.92c2.62-.4,64.47-9.53,93.86,23.74,9.1,10.3,15.47,20.7,21.1,29.88,12.5,20.43,21.54,35.19,51,39.15,14.66,2,27.24,2.94,38.34,3.8C2309.67,1033.71,2330.89,1035.35,2356,1074.64Z"/><rect class="cls-6" x="1827.14" y="891.06" width="238.64" height="238.64" rx="29.46"/><path class="cls-7" d="M2028.26,1005a81.91,81.91,0,0,1-1,12.61c-.15,1-.33,2-.53,3a81.21,81.21,0,0,1-6.66,20.09c-.29.6-.59,1.2-.9,1.79a82.29,82.29,0,0,1-21.83,26.61c-.49.39-1,.78-1.48,1.16a81.41,81.41,0,0,1-31.6,14.7h0l-2.1.45h0a79.09,79.09,0,0,1-9,1.24c-1,.09-2,.17-3,.19h0c-1.25.08-2.52.1-3.78.1a81.86,81.86,0,0,1-25-3.89c-1.22-.39-2.44-.81-3.64-1.27a77.1,77.1,0,0,1-8.22-3.59l-1.78-.92a82.3,82.3,0,0,1-28.5-25.35c-.37-.51-.73-1-1.08-1.55a81.44,81.44,0,0,1-11.17-25.17c-.32-1.24-.6-2.49-.85-3.75a82.57,82.57,0,0,1-1.36-9.37c-.06-.79-.12-1.58-.16-2.37h0c-.09-1.56-.14-3.11-.14-4.68a81.89,81.89,0,0,1,3.71-24.44c.21-.68.44-1.37.67-2.05a82,82,0,0,1,18-29.83c.44-.45.87-.9,1.32-1.34A81.7,81.7,0,0,1,1917,928.52c.62-.25,1.25-.47,1.89-.7a82.25,82.25,0,0,1,41-3.6c.78.12,1.56.26,2.33.42.56.1,1.11.21,1.66.34,1.08.24,2.15.49,3.22.78a81.34,81.34,0,0,1,31.72,16.34c.49.4,1,.8,1.44,1.23a81.92,81.92,0,0,1,22.11,31.1c.26.61.5,1.23.73,1.85a81.51,81.51,0,0,1,4.31,16.71c.16,1.08.3,2.17.4,3.26h0A81.75,81.75,0,0,1,2028.26,1005Z"/><path class="cls-8" d="M1997.38,1069.09c-.49.39-1,.78-1.48,1.16L1985,1058.09l-1.26-1.4-22.42-25-1.25-1.39-25.31-28.22-1.25-1.39-25-27.87-1.25-1.4-20.4-22.72c.44-.45.87-.9,1.32-1.34l20.47,22.82,1.25,1.39,25,27.87,1.25,1.39,25.31,28.22,1.26,1.39,22.43,25,1.24,1.39Z"/><path class="cls-8" d="M2020.11,1040.69c-.29.6-.59,1.2-.9,1.79l-7.51-8.37-1.25-1.39-22.42-25-1.25-1.39-25.31-28.22-1.26-1.39-25-27.88-1.24-1.39-17-18.93c.62-.25,1.25-.47,1.89-.7l16.48,18.39,1.25,1.39,25,27.87,1.26,1.39,25.31,28.22,1.25,1.39,22.42,25,1.25,1.39Z"/><path class="cls-8" d="M2027.39,993c.16,1.08.3,2.17.4,3.26l-12-13.4-1.24-1.39-25.32-28.24-1.24-1.39L1963.86,925c1.08.24,2.15.49,3.22.78l22.27,24.82,1.25,1.39,25.31,28.23,1.24,1.39Z"/><path class="cls-8" d="M1964.28,1085l-2.1.45h0l-3.41-3.8-1.24-1.4-22.43-25-1.26-1.39-25.3-28.21-1.25-1.41-25-27.85-1.25-1.41-12.89-14.36c.21-.68.44-1.37.67-2.05l13.61,15.17,1.25,1.39,25,27.87,1.24,1.39,25.33,28.22,1.24,1.39,22.43,25,1.25,1.39Z"/><path class="cls-8" d="M1962.2,924.64l-25.59,23-1.4,1.24-25.31,22.72-1.39,1.25-24.84,22.27-1.39,1.26-17.55,15.73c-.06-.79-.12-1.58-.16-2.37h0L1881,994.93l1.39-1.24,24.84-22.28,1.39-1.24L1934,947.45l1.39-1.24,24.51-22C1960.65,924.34,1961.43,924.48,1962.2,924.64Z"/><path class="cls-8" d="M2000.24,943.33,1990.6,952l-1.4,1.25-26.34,23.64-1.39,1.25-25.33,22.71-1.39,1.25-24.84,22.27-1.38,1.26-21.47,19.23-1.39,1.26-6.48,5.82c-.37-.51-.73-1-1.08-1.55l6.33-5.66,1.39-1.26,21.45-19.25,1.39-1.24,24.83-22.27,1.39-1.25,25.32-22.71,1.39-1.25L1988,951.83l1.39-1.25,9.45-8.48C1999.29,942.5,1999.77,942.9,2000.24,943.33Z"/><path class="cls-8" d="M2023.08,976.28l-5.93,5.31-1.39,1.26-26.34,23.62-1.39,1.25-25.32,22.71-1.4,1.25L1936.48,1054l-1.39,1.25-21.46,19.24-1.39,1.25-2.77,2.49-1.78-.92,3.3-3,1.39-1.26,21.45-19.24,1.41-1.25,24.82-22.27,1.39-1.25,25.33-22.71,1.39-1.25,26.35-23.62,1.39-1.26,6.44-5.77C2022.61,975,2022.85,975.66,2023.08,976.28Z"/><path class="cls-8" d="M2027.3,1017.62c-.15,1-.33,2-.53,3l-13.68,12.27-1.39,1.24-25.32,22.72-1.39,1.26-24.83,22.26-1.4,1.25-5.62,5c-1,.09-2,.17-3,.19l7.38-6.63,1.39-1.24,24.82-22.27,1.41-1.25,25.31-22.72,1.39-1.24Z"/><path class="cls-8" d="M1921.33,1083c-1.22-.39-2.44-.81-3.64-1.27l-5.45-6.08-1.25-1.38-25.32-28.22-1.23-1.39-17.5-19.51c-.32-1.24-.6-2.49-.85-3.75l19.74,22,1.23,1.39,25.32,28.22,1.25,1.39Z"/><rect class="cls-9" x="1827.14" y="653.19" width="238.64" height="238.64" rx="29.46"/><path class="cls-7" d="M2028.26,767.14a81.87,81.87,0,0,1-1,12.6c-.15,1-.33,2-.53,3a81.21,81.21,0,0,1-6.66,20.09c-.29.6-.59,1.2-.9,1.79a82.22,82.22,0,0,1-21.83,26.62l-1.48,1.15a81.57,81.57,0,0,1-31.6,14.71h0l-2.1.45h0a81.38,81.38,0,0,1-9,1.24c-1,.08-2,.16-3,.18h0c-1.25.08-2.52.1-3.78.1a81.86,81.86,0,0,1-25-3.89c-1.22-.39-2.44-.8-3.64-1.27a77.1,77.1,0,0,1-8.22-3.59c-.6-.3-1.19-.6-1.78-.92a82.2,82.2,0,0,1-28.5-25.35c-.37-.51-.73-1-1.08-1.55a81.49,81.49,0,0,1-11.17-25.16c-.32-1.24-.6-2.5-.85-3.76a82.57,82.57,0,0,1-1.36-9.37c-.06-.79-.12-1.58-.16-2.37h0c-.09-1.55-.14-3.11-.14-4.67a82,82,0,0,1,3.71-24.45c.21-.68.44-1.37.67-2a81.93,81.93,0,0,1,18-29.84c.44-.45.87-.9,1.32-1.34A81.67,81.67,0,0,1,1917,690.65c.62-.25,1.25-.48,1.89-.7a82.14,82.14,0,0,1,41-3.61c.78.12,1.56.26,2.33.42.56.1,1.11.22,1.66.34,1.08.24,2.15.49,3.22.78a81.47,81.47,0,0,1,31.72,16.34q.73.6,1.44,1.23a81.92,81.92,0,0,1,22.11,31.1c.26.62.5,1.23.73,1.86a81.58,81.58,0,0,1,4.31,16.7c.16,1.08.3,2.17.4,3.26h0A81.79,81.79,0,0,1,2028.26,767.14Z"/><path class="cls-8" d="M1997.38,831.22l-1.48,1.15L1985,820.21l-1.26-1.39-22.42-25-1.25-1.39-25.31-28.23-1.25-1.38-25-27.87-1.25-1.41-20.4-22.72c.44-.45.87-.9,1.32-1.34l20.47,22.82,1.25,1.39,25,27.87,1.25,1.39,25.31,28.22,1.26,1.39,22.43,25,1.24,1.4Z"/><path class="cls-8" d="M2020.11,802.81c-.29.6-.59,1.2-.9,1.79l-7.51-8.36-1.25-1.4-22.42-25-1.25-1.39-25.31-28.22-1.26-1.39-25-27.88-1.24-1.39-17-18.92c.62-.25,1.25-.48,1.89-.7l16.48,18.38,1.25,1.39,25,27.87,1.26,1.39,25.31,28.22,1.25,1.39,22.42,25,1.25,1.39Z"/><path class="cls-8" d="M2027.39,755.11c.16,1.08.3,2.17.4,3.26l-12-13.4-1.24-1.39-25.32-28.23L1988,714l-24.1-26.86c1.08.24,2.15.49,3.22.78l22.27,24.82,1.25,1.39,25.31,28.24,1.24,1.39Z"/><path class="cls-8" d="M1964.28,847.08l-2.1.45h0l-3.41-3.81-1.24-1.39-22.43-25-1.26-1.39-25.3-28.22-1.25-1.41-25-27.85-1.25-1.4-12.89-14.37c.21-.68.44-1.37.67-2l13.61,15.17,1.25,1.39,25,27.86,1.24,1.39,25.33,28.22,1.24,1.39,22.43,25,1.25,1.39Z"/><path class="cls-8" d="M1962.2,686.76l-25.59,23-1.4,1.24-25.31,22.72-1.39,1.26-24.84,22.27-1.39,1.25-17.55,15.73c-.06-.79-.12-1.58-.16-2.37h0L1881,757.06l1.39-1.24,24.84-22.29,1.39-1.24L1934,709.57l1.39-1.24,24.51-22C1960.65,686.46,1961.43,686.6,1962.2,686.76Z"/><path class="cls-8" d="M2000.24,705.45l-9.64,8.64-1.4,1.26L1962.86,739l-1.39,1.25-25.33,22.71-1.39,1.25-24.84,22.27-1.38,1.26L1887.06,807l-1.39,1.25-6.48,5.82c-.37-.51-.73-1-1.08-1.55l6.33-5.66,1.39-1.25,21.45-19.26,1.39-1.24,24.83-22.26,1.39-1.26,25.32-22.71,1.39-1.25L1988,714l1.39-1.26,9.45-8.48Q1999.54,704.82,2000.24,705.45Z"/><path class="cls-8" d="M2023.08,738.41l-5.93,5.31-1.39,1.25-26.34,23.62-1.39,1.25-25.32,22.71-1.4,1.26-24.83,22.26-1.39,1.26-21.46,19.24-1.39,1.25-2.77,2.48c-.6-.3-1.19-.6-1.78-.92l3.3-3,1.39-1.25,21.45-19.24,1.41-1.26,24.82-22.26,1.39-1.26,25.33-22.71,1.39-1.25,26.35-23.62,1.39-1.25,6.44-5.78C2022.61,737.17,2022.85,737.78,2023.08,738.41Z"/><path class="cls-8" d="M2027.3,779.74c-.15,1-.33,2-.53,3L2013.09,795l-1.39,1.25L1986.38,819l-1.39,1.25-24.83,22.27-1.4,1.24-5.62,5c-1,.08-2,.16-3,.18l7.38-6.62,1.39-1.24,24.82-22.27,1.41-1.26,25.31-22.72,1.39-1.24Z"/><path class="cls-8" d="M1921.33,845.16c-1.22-.39-2.44-.8-3.64-1.27l-5.45-6.07-1.25-1.39-25.32-28.22-1.23-1.39-17.5-19.5c-.32-1.24-.6-2.5-.85-3.76l19.74,22,1.23,1.39,25.32,28.22,1.25,1.39Z"/><path class="cls-10" d="M1978.6,1281.94,2105.2,1168c5.16-4.64,19.24-7.83,31.45-7.12l162.41,9.4c12.21.7,17.93,5,12.77,9.68l-126.59,113.9c-5.16,4.64-19.25,7.83-31.46,7.13l-162.41-9.4C1979.16,1290.92,1973.44,1286.59,1978.6,1281.94Z"/><polygon class="cls-10" points="2313.73 1174.64 2313.73 1160.82 1979.85 1268.22 1976.96 1271.2 1976.7 1285.84 2124.22 1290.65 2313.73 1174.64"/><path class="cls-4" d="M2134.34,1146.63l159.65,9.24c12.81.74,18.81,5.29,13.39,10.16l-119,107.07c-7.8,7-29.07,11.82-47.51,10.76l-143.05-8.28c-13.57-.79-19.93-5.61-14.19-10.77l124.84-112.32C2112.72,1148.67,2124.3,1146.05,2134.34,1146.63Z"/><path class="cls-5" d="M2313.68,1160.84c-.55-3-5.95-5.3-14.62-5.81l-162.41-9.39c-12.21-.72-26.28,2.48-31.45,7.12l-126.59,113.89c-1.78,1.59-2.28,3.16-1.64,4.55h0c.88,1.93,3.9,3.53,8.63,4.44h0a43.54,43.54,0,0,0,5.76.69l142.73,8.26h0l19.67,1.14c12.22.7,26.31-2.49,31.45-7.12l88-79.19h0l31.59-28.41,7-6.29a4.8,4.8,0,0,0,1.91-3.38A2.83,2.83,0,0,0,2313.68,1160.84Zm-7.46,3.54-6.63,6h0l-44.92,40.45-.06,0-73.28,65.91h0l-1.39,1.25h0l-.28.26c-3.86,3.47-14.37,5.84-23.48,5.31l-.66,0h0l-18-1.06-143.75-8.31a30.86,30.86,0,0,1-5.64-.81c-5.06-1.26-6.83-3.77-3.9-6.43l.29-.24h0l1.38-1.26,124.91-112.39c3.85-3.45,14.37-5.83,23.49-5.3l162.39,9.38c7.76.45,12,2.86,10.74,5.7A4.41,4.41,0,0,1,2306.22,1164.38Z"/><path class="cls-5" d="M1988.86,1275.06l165.31,9.57c11.1.64,23.91-2.26,28.6-6.48l1.35-1.22-201-11.63-3.24,2.92C1976.2,1271.5,1980.24,1274.56,1988.86,1275.06Z"/><path class="cls-10" d="M2374.14,1379.23l-1.2,2.68c-.8,1.77-1.59,3.52-2.4,5.24-30.54-.25-69.37,2.39-109.76,5.16-104.46,7.13-212.45,14.5-246.93-19-11.4-11.09-15.48-22.83-12.16-34.92,5.21-18.88,27.55-34.32,44.43-43.59h0c4.72-2.6,9-4.71,12.42-6.28h0c4.13-1.92,6.9-3,7.38-3.22l2.33,3.53,2.33,3.55c-.12.05-3.09,1.24-7.63,3.4-14.61,6.91-45.58,23.73-51.26,44.29-2.69,9.77.6,19,10.11,28.25,31.07,30.18,141,22.68,238.07,16C2302,1381.49,2342.43,1378.73,2374.14,1379.23Z"/><rect class="cls-11" x="573.11" y="296.3" width="1198.14" height="703.38"/><rect class="cls-2" x="573.11" y="296.3" width="1198.14" height="591.01"/><path class="cls-11" d="M1329,1114.27v17.08H977.18v-17.08a47.25,47.25,0,0,0,47.11-43.56c.09-1.21.14-2.45.14-3.69V999.68h257.32V1067c0,1.24,0,2.48.14,3.69a47.22,47.22,0,0,0,47.1,43.56Z"/><g class="cls-12"><rect class="cls-13" x="1024.43" y="999.68" width="257.32" height="14.07"/></g><g class="cls-12"><path class="cls-13" d="M1329,1114.27H977.18a47.25,47.25,0,0,0,47.11-43.56h257.6a47.22,47.22,0,0,0,47.1,43.56Z"/></g><path class="cls-14" d="M314.93,898.59s-12.46-110.68,35.42-204c5.08-9.89,17.68-7.4,19.76,3.92,7.45,40.58,14.87,121.63-19.45,207.75C301.82,1028.85,314.93,898.59,314.93,898.59Z"/><path class="cls-14" d="M372.12,920.47S380,809.37,444,726.34c6.79-8.81,18.74-4.07,18.72,7.44,0,41.25-7.44,122.31-56.82,200.76C335.59,1046.19,372.12,920.47,372.12,920.47Z"/><path class="cls-15" d="M340.27,898.34S340.49,787,398.7,699.76c6.17-9.25,18.41-5.33,19.18,6.15,2.78,41.16.92,122.53-43,204.17C312.4,1026.26,340.27,898.34,340.27,898.34Z"/><path class="cls-15" d="M377.89,904s22-84.13,83-138.64c6.48-5.78,15-.43,13.3,8.4-6,31.65-23.3,92.78-72.48,145.89C331.78,995.19,377.89,904,377.89,904Z"/><path class="cls-14" d="M295.73,911.56s12.46-110.67-35.42-203.94c-5.08-9.89-17.69-7.4-19.76,3.92C233.1,752.12,225.67,833.17,260,919.28,308.84,1041.82,295.73,911.56,295.73,911.56Z"/><path class="cls-14" d="M238.54,933.44s-7.83-111.1-71.85-194.13c-6.78-8.8-18.73-4.06-18.72,7.45,0,41.25,7.45,122.3,56.83,200.76C275.07,1059.16,238.54,933.44,238.54,933.44Z"/><path class="cls-15" d="M270.39,911.31S270.16,799.94,212,712.74c-6.17-9.25-18.41-5.34-19.18,6.14-2.78,41.16-.92,122.54,43,204.18C298.26,1039.23,270.39,911.31,270.39,911.31Z"/><path class="cls-15" d="M335.22,917.31s21-109.38-19.52-206.08c-4.3-10.25-17.06-8.74-20,2.38-10.57,39.88-24.25,120.11,3.3,208.63C338.21,1048.19,335.22,917.31,335.22,917.31Z"/><path class="cls-15" d="M232.77,916.94s-22-84.13-83.05-138.64c-6.47-5.78-14.95-.42-13.29,8.4,6,31.66,23.3,92.79,72.47,145.89C278.88,1008.16,232.77,916.94,232.77,916.94Z"/><path class="cls-5" d="M161.4,895.36H458a0,0,0,0,1,0,0V1009.6a90.66,90.66,0,0,1-90.66,90.66H247.3a90.66,90.66,0,0,1-90.66-90.66V900.11A4.76,4.76,0,0,1,161.4,895.36Z"/><rect class="cls-4" x="588.65" y="311.87" width="1164.71" height="553.16"/><g class="cls-16"><rect class="cls-17" x="616.09" y="337.39" width="249.73" height="249.73"/></g><g class="cls-16"><rect class="cls-17" x="616.09" y="614.62" width="249.73" height="227.52"/></g><g class="cls-16"><rect class="cls-17" x="914.2" y="643.25" width="804.31" height="198.88"/></g><rect class="cls-18" x="914.21" y="337.39" width="514.1" height="281.35"/><path class="cls-19" d="M1403.87,414.15V618.74H914.21V466h18.28v9.48h15v-5.51h13.93V448.1h6.94V437.91h1.05V448.1h16.65V429h1.63V448.1h11v-.26h0v-2.42h0v-2.3h0V439.3h0v-2.44h0v-3.81h0v-2.44h0V426.8h0v-2.64h0v-3.82h0V417h0v-3.82h0v-2.53H1002v-2.85h.53v2.85h24.32v-2.85h.51v2.85h4.45v20h3.09V426.8h0v-2.64h0v-3.82h0v-2.62h0V413.9h0v0h29.48v0h5.08l.78.3V436h21.55v28.62h17.4V411.68h3.8V408h.68v3.69h13.74V408h.68v3.69h19.47V408h.68v3.69h12.25V408h.68v3.69h5v49.4h19.24v-8l22.69.07V440.22h4.57v-2.55h.61v2.55h21v-2.56h.61v2.56h4.22V466h27v9.48h15v-5.51h13.93V448.1h6.95V437.91h1V448.1h16.65V429h1.63V448.1h11v-.26h0v-2.42h0v-2.3h0V439.3h0v-2.44h0v-3.81h0v-2.44h0V426.8h0v-2.64h0v-3.82h0V417h0v-3.82h0v-2.53h3.28v-2.85h.53v2.85h24.31v-2.85h.52v2.85h4.44v20h3.09V426.8h0v-2.64h0v-3.82h0v-2.62h0V413.9h0v0h29.48v0h5.07Z"/><rect class="cls-20" x="1122.75" y="411.69" width="43.5" height="8.37"/><rect class="cls-20" x="1332.51" y="410.64" width="20.29" height="5.08"/><rect class="cls-20" x="1332.51" y="418.47" width="20.29" height="5.09"/><rect class="cls-20" x="1332.51" y="426.46" width="20.29" height="5.09"/><rect class="cls-20" x="1332.51" y="434.58" width="20.29" height="5.08"/><rect class="cls-20" x="1332.51" y="442.41" width="20.29" height="5.09"/><rect class="cls-20" x="1332.51" y="451.03" width="20.29" height="5.09"/><rect class="cls-20" x="1332.51" y="458.86" width="20.29" height="5.08"/><rect class="cls-20" x="1332.51" y="466.85" width="20.29" height="5.09"/><rect class="cls-20" x="1332.51" y="474.97" width="20.29" height="5.08"/><rect class="cls-20" x="1332.51" y="482.8" width="20.29" height="5.08"/><rect class="cls-20" x="998.53" y="410.64" width="21.75" height="5.08"/><rect class="cls-20" x="998.53" y="418.47" width="21.75" height="5.09"/><rect class="cls-20" x="998.53" y="426.46" width="21.75" height="5.09"/><rect class="cls-20" x="998.53" y="434.58" width="21.75" height="5.08"/><rect class="cls-20" x="998.53" y="442.41" width="21.75" height="5.09"/><rect class="cls-20" x="998.53" y="451.03" width="21.75" height="5.09"/><rect class="cls-20" x="998.53" y="458.86" width="21.75" height="5.08"/><rect class="cls-20" x="998.53" y="466.85" width="21.75" height="5.09"/><rect class="cls-20" x="998.53" y="474.97" width="21.75" height="5.08"/><rect class="cls-20" x="998.53" y="482.8" width="21.75" height="5.08"/><rect class="cls-20" x="1035.36" y="413.98" width="24.72" height="5.09"/><rect class="cls-20" x="1035.36" y="421.81" width="24.72" height="5.08"/><rect class="cls-20" x="1035.36" y="429.8" width="24.72" height="5.08"/><rect class="cls-20" x="1035.36" y="437.91" width="24.72" height="5.09"/><rect class="cls-20" x="1035.36" y="445.75" width="24.72" height="5.08"/><rect class="cls-20" x="1035.36" y="453.91" width="24.72" height="5.09"/><rect class="cls-20" x="1035.36" y="461.74" width="24.72" height="5.08"/><rect class="cls-20" x="1035.36" y="469.73" width="24.72" height="5.08"/><rect class="cls-20" x="1035.36" y="477.85" width="24.72" height="5.09"/><rect class="cls-20" x="1035.36" y="485.68" width="24.72" height="5.09"/><path class="cls-21" d="M1360,393h-1.91l0-.15.57-5.1a.33.33,0,0,1,.33-.28h.06a.52.52,0,0,1,.28.13.5.5,0,0,1,.16.33Z"/><path class="cls-22" d="M1358.25,391.88h-.06l.47-4.1a.33.33,0,0,1,.33-.28h.06l0,.05a.51.51,0,0,1,.13.34l0,2.94A1,1,0,0,1,1358.25,391.88Z"/><rect class="cls-21" x="1357.51" y="415.71" width="3.68" height="162.64"/><rect class="cls-23" x="1357.51" y="415.71" width="1.7" height="162.64"/><rect class="cls-21" x="1353.49" y="552.4" width="11.73" height="43.03"/><rect class="cls-23" x="1353.49" y="552.4" width="6.99" height="43.03"/><path class="cls-21" d="M1365.77,395.49c0,2-3,3.64-6.74,3.64q-.43,0-.84,0c-3.33-.22-5.91-1.75-5.91-3.61s2.58-3.38,5.91-3.6q.4,0,.84,0C1362.75,391.86,1365.77,393.49,1365.77,395.49Z"/><path class="cls-23" d="M1362.28,395.49c0,1.62-1.69,3-4.09,3.61-3.33-.22-5.91-1.75-5.91-3.61s2.58-3.38,5.91-3.6C1360.59,392.48,1362.28,393.87,1362.28,395.49Z"/><polygon class="cls-23" points="1365.21 418.92 1353.48 418.92 1349.34 399 1368.71 399 1365.21 418.92"/><rect class="cls-21" x="1348.29" y="397.5" width="21.46" height="1.91"/><rect class="cls-23" x="1348.29" y="397.5" width="13.49" height="1.91"/><path class="cls-24" d="M1355.41,552.4h7.5l-1.1-3.33a.72.72,0,0,0-.68-.49h-3.52a.92.92,0,0,0-.86.58Z"/><polygon class="cls-25" points="1350.73 399.97 1367.27 399.97 1364.04 417.88 1354.54 417.88 1350.73 399.97"/><polygon class="cls-21" points="1368.38 397.5 1349.66 397.5 1351.2 395.32 1366.93 395.32 1368.38 397.5"/><polygon class="cls-23" points="1363.78 397.5 1349.66 397.5 1351.2 395.32 1362.32 395.32 1363.78 397.5"/><path class="cls-14" d="M1032.48,595.61l-118.27,0V566.7l1.14.55c16.14,8.22,14,19.17,34,15.15s36.46-5.68,45.41,0,15.51,3.43,26.64,3.4C1030.62,585.77,1032.2,593.11,1032.48,595.61Z"/><polygon class="cls-26" points="1057.02 562.53 944.32 562.53 939.12 536.04 1051.61 536.04 1057.02 562.53"/><polygon class="cls-27" points="1058.94 562.53 946.25 562.53 941.04 536.04 1053.53 536.04 1058.94 562.53"/><path class="cls-26" d="M944.32,562.53h33.26a0,0,0,0,1,0,0v3.24a0,0,0,0,1,0,0h-30.8a2.47,2.47,0,0,1-2.47-2.47v-.78A0,0,0,0,1,944.32,562.53Z"/><rect class="cls-28" x="977.34" y="562.53" width="102.35" height="3.24"/><path class="cls-28" d="M951.05,565.77l-1.93,7.59h0l-5.71,22.47a.66.66,0,0,1-.64.5.93.93,0,0,1-.91-1.1L947,569l.63-3.26Z"/><path class="cls-26" d="M949.12,573.36c.19-3.88-2.16-4.33-2.16-4.33l.63-3.26h3.46Z"/><path class="cls-28" d="M975.5,565.77l-1.93,7.59h0l-5.71,22.47a.66.66,0,0,1-.64.5.93.93,0,0,1-.91-1.1l5.1-26.21.63-3.26Z"/><path class="cls-26" d="M973.57,573.36c.18-3.88-2.16-4.33-2.16-4.33l.63-3.26h3.46Z"/><path class="cls-28" d="M1070.35,565.77l1.93,7.59h0l5.71,22.47a.66.66,0,0,0,.64.5.92.92,0,0,0,.9-1.1L1074.44,569l-.63-3.26Z"/><path class="cls-26" d="M1072.28,573.36c-.19-3.88,2.16-4.33,2.16-4.33l-.63-3.26h-3.46Z"/><path class="cls-28" d="M1045.9,565.77l1.93,7.59h0l5.71,22.47a.66.66,0,0,0,.64.5.93.93,0,0,0,.91-1.1L1050,569l-.63-3.26Z"/><path class="cls-26" d="M1047.83,573.36c-.18-3.88,2.16-4.33,2.16-4.33l-.63-3.26h-3.46Z"/><path class="cls-14" d="M984.46,409.86a23.09,23.09,0,0,1-10,3c-16.32,1-22,7.09-35.18,19.94-7.09,6.88-16.87,8.37-25,8.61V354.13c2.3,1.65,4.66,3.34,7.08,4.94,9,6,18.72,10.91,29.36,8.32s19-2.45,25.45-.36c8.26,2.6,13.67,8.26,17.54,15.19C999,391.76,994.36,404.2,984.46,409.86Z"/><path class="cls-29" d="M1117.73,379a7.31,7.31,0,1,1,7.31,7.31A7.31,7.31,0,0,1,1117.73,379Z"/><path class="cls-29" d="M1238.11,372.5s6.35-10.22,21.55-9.08c0,0,22-17,45.57-2.27,0,0,25-3.66,43.52,3.16,12.35,4.55,16.43,9.32,16.43,9.32Z"/><g class="cls-30"><path class="cls-29" d="M1314,398.73s4.15-6.67,14.09-5.93c0,0,14.43-11.13,29.81-1.49,0,0,16.35-2.39,28.46,2.07,8.08,3,10.75,6.1,10.75,6.1Z"/></g><g class="cls-30"><path class="cls-29" d="M1003.7,394.1s4.15-6.67,14.09-5.93c0,0,14.43-11.13,29.81-1.49,0,0,16.35-2.39,28.46,2.07,8.08,3,10.75,6.1,10.75,6.1Z"/></g><rect class="cls-21" x="914.21" y="595.43" width="514.1" height="23.3"/><path class="cls-11" d="M1238.12,588.31a21.87,21.87,0,0,1,4.35-18c6.87-8.89,18.52-6.5,18.52-6.5s1.62,2.5-1.6,4.48-14.43-2-17.25,17.49C1242.14,585.75,1240.79,589.78,1238.12,588.31Z"/><path class="cls-31" d="M1150.94,456.79a4.15,4.15,0,1,1,4.14,4.15A4.15,4.15,0,0,1,1150.94,456.79Z"/><path class="cls-21" d="M1251.25,582.88a5.82,5.82,0,1,1,5.81,5.82A5.81,5.81,0,0,1,1251.25,582.88Z"/><path class="cls-21" d="M1122.4,578.44a8.9,8.9,0,1,1,8.9,8.9A8.89,8.89,0,0,1,1122.4,578.44Z"/><rect class="cls-32" x="1087.93" y="510.6" width="103.96" height="3.55" transform="translate(477.41 1572.1) rotate(-82.19)"/><polygon class="cls-31" points="1136.54 464.2 1136.54 460.22 1154.65 456.26 1155.84 459.6 1136.54 464.2"/><path class="cls-33" d="M1131.59,595.33a16.57,16.57,0,1,1,16.56-16.56A16.58,16.58,0,0,1,1131.59,595.33Zm0-29.78a13.22,13.22,0,1,0,13.21,13.22A13.23,13.23,0,0,0,1131.59,565.55Z"/><path class="cls-33" d="M1257.06,595a12.11,12.11,0,1,1,12.11-12.11A12.12,12.12,0,0,1,1257.06,595Zm0-21.55a9.45,9.45,0,1,0,9.45,9.44A9.44,9.44,0,0,0,1257.06,573.44Z"/><rect class="cls-32" x="1154.27" y="583.2" width="87.59" height="6.62" rx="2.67"/><path class="cls-32" d="M1240.15,589.86a1.33,1.33,0,0,1-.42-2.6l16.91-5.64a1.33,1.33,0,1,1,.84,2.52l-16.91,5.65A1.23,1.23,0,0,1,1240.15,589.86Z"/><polygon class="cls-32" points="1136.17 537.99 1164.52 583.34 1171.71 583.34 1137.67 529.56 1136.17 537.99"/><path class="cls-33" d="M1137.79,564.22l-2.6-.8-2.72,8.91a6.54,6.54,0,0,1-6.81,4.62l-8.61-.73-.23,2.71,8.64.73a11.49,11.49,0,0,1,8.73,5.28l4.58,7.15,2.28-1.47-4.41-6.9a13.12,13.12,0,0,1-1.49-10.86Z"/><path class="cls-33" d="M1261,573.6l-1.69-.51-1.76,5.79a4.26,4.26,0,0,1-4.43,3l-5.59-.47-.15,1.76,5.61.47a7.5,7.5,0,0,1,5.68,3.43l3,4.65,1.48-1-2.86-4.48a8.5,8.5,0,0,1-1-7.06Z"/><path class="cls-11" d="M1255.49,582.67a1.33,1.33,0,1,1,1.33,1.33A1.33,1.33,0,0,1,1255.49,582.67Z"/><path class="cls-11" d="M1130,578.44a1.34,1.34,0,1,1,1.34,1.34A1.34,1.34,0,0,1,1130,578.44Z"/><path class="cls-11" d="M1121.14,561.27a21.91,21.91,0,0,1,18.45-1.94c10.68,3.5,12.33,15.27,12.33,15.27s-1.82,2.37-4.76,0-3-14.26-22.26-10.4C1124.9,564.2,1120.66,564.28,1121.14,561.27Z"/><path class="cls-34" d="M1195,357.79s-13.41,21.57-13.41,27.42,4.27,12.58,4.27,12.58l13.57-11.26,6.76-12.12Z"/><path class="cls-35" d="M1205.56,389.42s-4.53,8.16-12.62,6.71a23.23,23.23,0,0,1-3-6.47c-.07-.35-.14-.7-.21-1-.68-3.24-1.15-5-1.15-5h0c.31-.21,10.56-7,10.63-6.6C1200.78,385.82,1205.56,389.42,1205.56,389.42Z"/><path class="cls-36" d="M1185.09,384.1s12.44,4.16,14.92-3.63,5.75-12.49-2.09-15.48-10.34-.51-11.8,1.89S1181.92,382.81,1185.09,384.1Z"/><path class="cls-37" d="M1171,583.34h20.5a1.68,1.68,0,0,0,.44-.13c1.37-.69.94-5.93.77-7.54,0-.3,0-.48,0-.48s-7.21-5.77-8.2-1.35c0,.14-.07.27-.11.4h0c-1.25,4.13-6.84,6-10.08,6.53C1171.78,581.18,1171.14,582.62,1171,583.34Z"/><path class="cls-37" d="M1211.11,583.34h20.51a1.71,1.71,0,0,0,.43-.13c1.37-.69.94-5.93.78-7.54,0-.3-.06-.48-.06-.48s-7.21-5.77-8.2-1.35c0,.14-.07.27-.11.4h0c-1.25,4.13-6.84,6-10.07,6.53C1211.92,581.18,1211.28,582.62,1211.11,583.34Z"/><path class="cls-11" d="M1175.11,465.11s1.1,13.66,2.38,30.08c1.75,22.3,3.86,49.7,4.06,54.89.36,9,2.78,24.16,2.78,24.16s1.46,2.39,8.31,1c0,0,7.09-20.28,8.84-42.05,0-.36,0-.72.08-1.08,1.62-22.17,4.14-68.85,4.14-68.85Z"/><path class="cls-31" d="M1175.11,465.11s1.1,13.66,2.38,30.08l24,37.95c0-.36,0-.72.08-1.08,1.62-22.17,4.14-68.85,4.14-68.85Z"/><path class="cls-11" d="M1180.11,466.73s13.45,51.49,26.42,74.74,17.62,33.6,17.62,33.6,7.95,2.15,8.62.12c0,0-6.79-55.34-12.06-68.28-2.73-6.7-4-27.29-4.27-33.78s-4.83-15.32-4.83-15.32Z"/><path class="cls-21" d="M1175.68,486.79c25,12.35,52.27,8.35,52.21,7.5s-10.39-56-14-72c-3.33-14.95-7.85-28.05-12-31-.55-.38-3.84,1.31-6.86,2.88a12.71,12.71,0,0,1-8.28,1.17,19.09,19.09,0,0,0-2.15,3.75c-1.68,4.1-10.44,32.06-10.56,36.9,0,.29,0,.57,0,.86,0,1.4,0,2.81-.07,4.2C1173.92,442.58,1175.4,486.65,1175.68,486.79Z"/><path class="cls-38" d="M1174.75,465.79c24.54-13.76,22.11-45.44,22.11-45.44L1174,441c0,1.6,0,3.18,0,4.74,0,1.18,0,2.35,0,3.49v.15a11.66,11.66,0,0,0,0,1.32C1173.93,452.6,1174.73,464.05,1174.75,465.79Z"/><path class="cls-36" d="M1150,456.35c-1.22-2.12-.27-3-.27-3s20.27-14.89,21.87-16.4,9.55-26.22,9.55-26.22,2.78-10,8.61-10.95c5.06-.81,8.46,1.79,10.65,4.78a10.74,10.74,0,0,1,.35,12.09c-5.31,8.35-16,24.94-19.09,27.74-6.82,6.22-28.81,13.7-28.81,13.7A3.64,3.64,0,0,1,1150,456.35Z"/><path class="cls-39" d="M1199.37,382.6c.17.13,2.83,1.22,9-8.63a9,9,0,0,0,.23-8.27c-1.61-3.27-8.11-6.33-13.6-7.91s-7.12,1.45-8.72,4.49c-1.69,3.19-5.93,5.55-5.93,5.55,4.57,3.13,10.73-.18,12.68.64s2.37,4,2.42,5.08.21,1.9,2.83,1.22.81,3.69.32,4.51C1198.56,379.28,1198,381.54,1199.37,382.6Z"/><path class="cls-21" d="M1195,357.79s6.86,11.73,7.08,16.74-15.29,20.74-15.29,20.74,13.3,3.49,18.78,0c0,0,12.66-17.64,12.66-20.86S1210.77,358,1195,357.79Z"/><path class="cls-38" d="M1182.86,464.63s12,2,19.6.86l-.17,12.1-9.63,3.69-9.8-5.43Z"/><path class="cls-36" d="M1149.69,453.32s-7.76.39-9.31,1.85-4.61,4.22-2.31,4.71l5.58-1.22c2.85.67,3.88,2.22,5.69,1.26l3.8-2Z"/><path class="cls-11" d="M1131.1,461.65a4.14,4.14,0,1,1,4.14,4.14A4.14,4.14,0,0,1,1131.1,461.65Z"/><path class="cls-11" d="M1243.37,432.49a8.85,8.85,0,0,1-.22,1.57c-1.63,6.22-22.68,10.92-25,8.67a9,9,0,0,1-1.36-1.8c-6-9.85-13.6-45.73-10.6-43.6a59.68,59.68,0,0,1,10.18-2.18l.81-.07h0a9.74,9.74,0,0,1,3.68.33c3.92,1.45,7,11.68,7,11.68a27.16,27.16,0,0,1,6.1-.11c.36,0,.7.1,1,.17h0a6.18,6.18,0,0,1,2.28.89C1239.77,409.8,1243.8,425.76,1243.37,432.49Z"/><path class="cls-11" d="M1208.8,396.82s-7.22-6.9-19.3-4.44l-2.75,2.89s12.13-2.92,18.81,3.46Z"/><path class="cls-11" d="M1187.81,429.66s7.22,12.82,26.92,6.46l2,4.81s-23.43,6.66-31.33-6.24Z"/><path class="cls-21" d="M1190.41,397.79s-5-.57-6.85,4.09c-1.31,3.33-4.26,19-10.91,30.38-2.66,4.57-12.81,13.49-17,16.73,0,0,1.53,4.95,4.84,6.27,0,0,16,1.62,26.53-10.35,3-3.4,20.9-32.55,17.21-38.57S1190.41,397.79,1190.41,397.79Z"/><path class="cls-31" d="M1217.17,395.08c-.71.69-2.11,2.52-1.65,6a31.75,31.75,0,0,0,2.15,8.07l-.52.24a31.89,31.89,0,0,1-2.19-8.23,7.62,7.62,0,0,1,1.37-6Z"/><path class="cls-31" d="M1237.53,432.64l-.55.17c-.24-.77-5.83-18.8-5.44-22.13A4.67,4.67,0,0,1,1234,407c.36,0,.7.1,1,.17a4.14,4.14,0,0,0-2.92,3.6C1231.74,414,1237.47,432.45,1237.53,432.64Z"/><path class="cls-31" d="M1212.43,424.69l5,14.1s6.89.21,11.1-2.67l-4.6-14.49S1220.09,424.56,1212.43,424.69Z"/><path class="cls-31" d="M1243.37,432.49a8.85,8.85,0,0,1-.22,1.57c-1.63,6.22-22.68,10.92-25,8.67a9,9,0,0,1-1.36-1.8C1216.94,440.93,1228.89,440.51,1243.37,432.49Z"/><path class="cls-40" d="M1212.43,424.69l1.47,4.14,6.57.45,4.72-3.61-1.28-4A101.32,101.32,0,0,0,1212.43,424.69Z"/><path class="cls-32" d="M1219.48,428a.42.42,0,0,1,.42-.42.41.41,0,0,1,.41.42.41.41,0,0,1-.41.41A.41.41,0,0,1,1219.48,428Z"/><rect class="cls-21" x="950.9" y="667.83" width="616.64" height="15.51"/><rect class="cls-21" x="950.9" y="699.13" width="616.64" height="15.5"/><rect class="cls-21" x="1225.62" y="730.42" width="341.92" height="15.5"/><rect class="cls-21" x="1155.71" y="761.72" width="265.17" height="15.51"/><rect class="cls-21" x="1225.62" y="793.01" width="341.92" height="15.51"/><rect class="cls-21" x="634.06" y="542.15" width="163.3" height="7.75"/><rect class="cls-21" x="813.1" y="542.15" width="17.97" height="17.97"/><rect class="cls-41" x="695.12" y="542.15" width="74.92" height="7.75"/><rect class="cls-21" x="634.06" y="499.65" width="163.3" height="7.74"/><rect class="cls-21" x="813.1" y="499.65" width="17.97" height="17.97"/><rect class="cls-41" x="655.43" y="499.65" width="52.18" height="7.74"/><rect class="cls-21" x="634.06" y="457.15" width="163.3" height="7.74"/><rect class="cls-38" x="813.1" y="457.15" width="17.97" height="17.97"/><rect class="cls-38" x="714.86" y="457.15" width="52.18" height="7.74"/><rect class="cls-21" x="634.06" y="414.65" width="163.3" height="7.74"/><rect class="cls-38" x="813.1" y="414.65" width="17.97" height="17.97"/><rect class="cls-38" x="655.43" y="414.65" width="79.38" height="7.74"/><rect class="cls-21" x="634.06" y="372.15" width="163.3" height="7.74"/><rect class="cls-41" x="813.1" y="372.15" width="17.97" height="17.97"/><rect class="cls-41" x="711.09" y="372.15" width="69.6" height="7.74"/><rect class="cls-21" x="707.61" y="638.77" width="15.86" height="15.86"/><rect class="cls-21" x="735.96" y="638.77" width="15.86" height="15.86"/><rect class="cls-21" x="762.77" y="640.81" width="82.71" height="5.89"/><polygon class="cls-21" points="683.93 636.78 696.94 646.7 683.93 654.29 683.93 636.78"/><rect class="cls-38" x="707.61" y="669.12" width="15.86" height="15.86"/><rect class="cls-21" x="735.96" y="669.12" width="15.86" height="15.86"/><rect class="cls-21" x="762.77" y="671.16" width="82.71" height="5.88"/><polygon class="cls-21" points="683.93 667.13 696.94 677.04 683.93 684.63 683.93 667.13"/><rect class="cls-41" x="707.61" y="699.46" width="15.86" height="15.86"/><rect class="cls-21" x="735.96" y="699.46" width="15.86" height="15.86"/><rect class="cls-21" x="762.77" y="701.51" width="82.71" height="5.88"/><polygon class="cls-21" points="683.93 697.48 696.94 707.39 683.93 714.98 683.93 697.48"/><rect class="cls-41" x="707.61" y="729.81" width="15.86" height="15.86"/><rect class="cls-21" x="735.96" y="729.81" width="15.86" height="15.86"/><rect class="cls-21" x="762.77" y="731.85" width="82.71" height="5.89"/><polygon class="cls-21" points="683.93 727.83 696.94 737.74 683.93 745.33 683.93 727.83"/><rect class="cls-38" x="707.61" y="760.16" width="15.86" height="15.86"/><rect class="cls-21" x="735.96" y="760.16" width="15.86" height="15.86"/><rect class="cls-21" x="762.77" y="762.2" width="82.71" height="5.89"/><polygon class="cls-21" points="683.93 758.17 696.94 768.09 683.93 775.67 683.93 758.17"/><rect class="cls-38" x="707.61" y="790.5" width="15.86" height="15.86"/><rect class="cls-21" x="735.96" y="790.5" width="15.86" height="15.86"/><rect class="cls-21" x="762.77" y="792.55" width="82.71" height="5.88"/><polygon class="cls-21" points="683.93 788.52 696.94 798.43 683.93 806.02 683.93 788.52"/><g class="cls-30"><path class="cls-17" d="M631.58,645.54s4.19-5.41,9.86-5.41,9.36,5.41,9.36,5.41a11.28,11.28,0,0,1-9.36,5.4A11.93,11.93,0,0,1,631.58,645.54Z"/><path class="cls-42" d="M637.45,645.54a3.75,3.75,0,1,1,3.74,3.74A3.75,3.75,0,0,1,637.45,645.54Z"/><path class="cls-17" d="M638.91,645.54a2.29,2.29,0,1,1,2.28,2.28A2.28,2.28,0,0,1,638.91,645.54Z"/></g><g class="cls-30"><path class="cls-17" d="M631.58,675.88s4.19-5.4,9.86-5.4,9.36,5.4,9.36,5.4a11.28,11.28,0,0,1-9.36,5.41A11.93,11.93,0,0,1,631.58,675.88Z"/><path class="cls-42" d="M637.45,675.88a3.75,3.75,0,1,1,3.74,3.75A3.75,3.75,0,0,1,637.45,675.88Z"/><path class="cls-17" d="M638.91,675.88a2.29,2.29,0,1,1,2.28,2.29A2.28,2.28,0,0,1,638.91,675.88Z"/></g><g class="cls-30"><path class="cls-17" d="M631.58,706.23s4.19-5.41,9.86-5.41,9.36,5.41,9.36,5.41a11.28,11.28,0,0,1-9.36,5.41A11.93,11.93,0,0,1,631.58,706.23Z"/><path class="cls-42" d="M637.45,706.23a3.75,3.75,0,1,1,3.74,3.74A3.74,3.74,0,0,1,637.45,706.23Z"/><path class="cls-17" d="M638.91,706.23a2.29,2.29,0,1,1,2.28,2.28A2.29,2.29,0,0,1,638.91,706.23Z"/></g><g class="cls-30"><path class="cls-17" d="M631.58,736.58s4.19-5.41,9.86-5.41,9.36,5.41,9.36,5.41a11.28,11.28,0,0,1-9.36,5.4A11.93,11.93,0,0,1,631.58,736.58Z"/><path class="cls-42" d="M637.45,736.58a3.75,3.75,0,1,1,3.74,3.74A3.74,3.74,0,0,1,637.45,736.58Z"/><path class="cls-17" d="M638.91,736.58a2.29,2.29,0,1,1,2.28,2.28A2.28,2.28,0,0,1,638.91,736.58Z"/></g><g class="cls-30"><path class="cls-17" d="M631.58,766.92s4.19-5.4,9.86-5.4,9.36,5.4,9.36,5.4a11.28,11.28,0,0,1-9.36,5.41A11.93,11.93,0,0,1,631.58,766.92Z"/><path class="cls-42" d="M637.45,766.92a3.75,3.75,0,1,1,3.74,3.75A3.75,3.75,0,0,1,637.45,766.92Z"/><path class="cls-17" d="M638.91,766.92a2.29,2.29,0,1,1,2.28,2.29A2.28,2.28,0,0,1,638.91,766.92Z"/></g><g class="cls-30"><path class="cls-17" d="M631.58,797.27s4.19-5.4,9.86-5.4,9.36,5.4,9.36,5.4a11.28,11.28,0,0,1-9.36,5.41A11.93,11.93,0,0,1,631.58,797.27Z"/><path class="cls-42" d="M637.45,797.27a3.75,3.75,0,1,1,3.74,3.74A3.74,3.74,0,0,1,637.45,797.27Z"/><path class="cls-17" d="M638.91,797.27a2.29,2.29,0,1,1,2.28,2.29A2.28,2.28,0,0,1,638.91,797.27Z"/></g><rect class="cls-11" x="1332.59" y="761.72" width="234.95" height="15.51"/><rect class="cls-11" x="1374.11" y="730.42" width="136.51" height="15.5"/><rect class="cls-11" x="1359.03" y="667.83" width="157.98" height="15.51"/><rect class="cls-38" x="1407.06" y="699.13" width="136.51" height="15.5"/><path class="cls-42" d="M1032.34,438.44c-32.28-41.24-68.21-42.69-68.57-42.7l0-.93c.36,0,36.72,1.47,69.27,43.06Z"/><path class="cls-41" d="M959.6,395.27a3.84,3.84,0,1,1,3.83,3.84A3.84,3.84,0,0,1,959.6,395.27Z"/><path class="cls-41" d="M1028.87,437.77a3.83,3.83,0,1,1,3.83,3.83A3.83,3.83,0,0,1,1028.87,437.77Z"/><path class="cls-42" d="M1042,387.31l-.71-.61c.24-.27,24.24-27.68,77-26.94l0,.93C1065.9,360,1042.23,387,1042,387.31Z"/><path class="cls-41" d="M1039,390.26a3.83,3.83,0,1,1,5.38-.58A3.83,3.83,0,0,1,1039,390.26Z"/><path class="cls-41" d="M1115.56,363a3.83,3.83,0,1,1,5.39-.58A3.84,3.84,0,0,1,1115.56,363Z"/><path class="cls-42" d="M1286.52,387.2l-.83-.71c.26-.31,27.38-31.06,90.85-27l-.07,1.1C1313.54,356.57,1286.78,386.9,1286.52,387.2Z"/><path class="cls-41" d="M1283.15,390.51a4.34,4.34,0,1,1,6.44-.35A4.57,4.57,0,0,1,1283.15,390.51Z"/><path class="cls-41" d="M1373.42,363.11a4.34,4.34,0,1,1,6.44-.35A4.56,4.56,0,0,1,1373.42,363.11Z"/><rect class="cls-42" x="1177.51" y="401.57" width="64.43" height="0.93"/><path class="cls-43" d="M1173.68,402a3.84,3.84,0,1,1,3.83,3.83A3.83,3.83,0,0,1,1173.68,402Z"/><path class="cls-43" d="M1238.11,402a3.84,3.84,0,1,1,3.83,3.83A3.84,3.84,0,0,1,1238.11,402Z"/><rect class="cls-41" x="1305.82" y="649.15" width="9.29" height="9.29" transform="translate(846.02 -735.11) rotate(45)"/><path class="cls-42" d="M1141.25,518.63c-36.69,0-75.38-6.44-106.76-13.49a828.11,828.11,0,0,1-103.08-30.48l.33-.87a827.32,827.32,0,0,0,103,30.44c52.41,11.79,125.3,21.87,174.85,2.95,49.76-19,102.45-16.26,137.88-10.61,38.38,6.12,65.36,16.87,65.63,17l-.35.86c-.27-.11-27.17-10.83-65.45-16.93-35.32-5.62-87.81-8.36-137.38,10.56C1189.84,515.7,1166,518.63,1141.25,518.63Z"/><path class="cls-44" d="M1216.38,504.2a3.83,3.83,0,1,1,3.83,3.83A3.83,3.83,0,0,1,1216.38,504.2Z"/><path class="cls-44" d="M1110.06,517.68a3.84,3.84,0,1,1,3.83,3.83A3.84,3.84,0,0,1,1110.06,517.68Z"/><path class="cls-42" d="M1134.7,611.53a60.79,60.79,0,0,1-25.57-5.42l.39-.84c26.43,12.15,53-.21,53.3-.34l.4.84A73.76,73.76,0,0,1,1134.7,611.53Z"/><path class="cls-41" d="M1165.43,608.34a3.84,3.84,0,1,1,.57-5.4A3.83,3.83,0,0,1,1165.43,608.34Z"/><path class="cls-41" d="M1111.73,608.67a3.83,3.83,0,1,1,.57-5.39A3.83,3.83,0,0,1,1111.73,608.67Z"/><path class="cls-42" d="M1261.41,611.53a60.84,60.84,0,0,1-25.58-5.42l.39-.84c26.43,12.15,53-.21,53.3-.34l.4.84A73.67,73.67,0,0,1,1261.41,611.53Z"/><path class="cls-41" d="M1292.13,608.34a3.83,3.83,0,1,1,.58-5.4A3.83,3.83,0,0,1,1292.13,608.34Z"/><path class="cls-41" d="M1238.44,608.67a3.83,3.83,0,1,1,.57-5.39A3.84,3.84,0,0,1,1238.44,608.67Z"/><g class="cls-45"><path class="cls-21" d="M1428.31,470.24V601.52l-46.93-6.09s-4.19-27.67,15.75-36.46C1415.67,550.81,1403.2,479.61,1428.31,470.24Z"/></g><path class="cls-41" d="M1406.79,514a3.84,3.84,0,1,1,3.83,3.83A3.84,3.84,0,0,1,1406.79,514Z"/><path class="cls-41" d="M928.69,474.23a3.84,3.84,0,1,1,3.83,3.83A3.83,3.83,0,0,1,928.69,474.23Z"/><g class="cls-16"><rect class="cls-17" x="1470.95" y="337.64" width="247.56" height="281.1"/></g><rect class="cls-21" x="1492.5" y="354.56" width="120.84" height="3.45"/><rect class="cls-21" x="1492.5" y="363.14" width="93.5" height="3.45"/><rect class="cls-21" x="1676.97" y="356.56" width="6.54" height="6.54"/><rect class="cls-21" x="1492.5" y="392.69" width="120.84" height="3.45"/><rect class="cls-21" x="1492.5" y="401.27" width="93.5" height="3.45"/><rect class="cls-21" x="1676.97" y="394.69" width="6.54" height="6.54"/><rect class="cls-21" x="1492.5" y="430.82" width="120.84" height="3.45"/><rect class="cls-21" x="1492.5" y="439.4" width="93.5" height="3.45"/><rect class="cls-21" x="1676.97" y="432.82" width="6.54" height="6.54"/><rect class="cls-21" x="1492.5" y="468.95" width="120.84" height="3.45"/><rect class="cls-21" x="1492.5" y="477.53" width="93.5" height="3.45"/><rect class="cls-21" x="1676.97" y="470.95" width="6.54" height="6.54"/><rect class="cls-21" x="1492.5" y="507.08" width="120.84" height="3.45"/><rect class="cls-21" x="1492.5" y="515.66" width="93.5" height="3.45"/><rect class="cls-21" x="1676.97" y="509.08" width="6.54" height="6.54"/><rect class="cls-21" x="1676.97" y="543.67" width="6.54" height="6.54"/><rect class="cls-21" x="1492.5" y="545.21" width="120.84" height="3.45"/><rect class="cls-21" x="1492.5" y="553.79" width="93.5" height="3.45"/><rect class="cls-21" x="1492.5" y="583.34" width="120.84" height="3.45"/><rect class="cls-21" x="1492.5" y="591.93" width="93.5" height="3.45"/><rect class="cls-21" x="1676.97" y="585.35" width="6.54" height="6.54"/><path class="cls-46" d="M1575.71,1179.8s-17.28,42.69-11.19,47.15,27-13.67,32.53-32.82S1575.71,1179.8,1575.71,1179.8Z"/><path class="cls-36" d="M1928.78,1467.86c-76.45,0-156.26,0-231.69,0-2.91-7-6-14.39-9.23-21.89-20.92-48.73-47.17-103.59-61.77-110.12-26.88-12-43.07-1.5-76.51-40.53S1494.86,1243,1508,1234s56.52,24.85,68.55,23.39c9.67-1.18,14.7-24.6,13.9-49.33a148.08,148.08,0,0,0-1.84-19.28h0c-.51-3.17-1.14-6.26-1.87-9.22a80.2,80.2,0,0,0-4.25-12.84c-3.29-7.5-3-12.64-.49-16.08,7.51-10.33,34.92-5.36,45.27-2.9,4.62,1.1,18.91-7.56,28.92-2.63,15.53,7.65,24.57-1.17,34.89,5.46,7.29,4.69,22.31,6.89,27.48,13.66,9.84,12.88,12.28,40.14,21.88,65.32,8.88,23.32,12,47.78,42.43,89.06,13.57,18.39,55.59,61.07,98,102.76C1897.34,1437.47,1913.85,1453.48,1928.78,1467.86Z"/><path class="cls-36" d="M1581.81,1150.52s-63.78,52.22-55.49,59.23,29.31.12,63.72-21.93S1581.81,1150.52,1581.81,1150.52Z"/><path class="cls-5" d="M1947.9,1467.86h-19.12c-76.45,0-156.26,0-231.69,0h-22.54l-2.62-5.42s5.31-7.19,15.93-16.47c27.88-24.37,92.27-63.22,193-24.62,4.48,1.72,9,3.58,13.66,5.62Z"/><path class="cls-46" d="M905.5,1206.46s11.07,44.71,4.41,48.27-24.79-17.36-27.57-37.09S905.5,1206.46,905.5,1206.46Z"/><path class="cls-36" d="M915.05,1324.49c-38.63,33.91-53.17,21.23-81.47,29.32-15.38,4.39-49.12,55-76.72,100.28q-3.54,5.82-6.93,11.47l-266.55-1c22.8-16.27,54.38-39,85.85-62.16,47.89-35.27,95.54-71.6,111.58-87.89,36-36.57,42.5-60.34,54.59-82.17,12.89-23.27,12.51-50.65,30.29-50.37,8.77.13,16.5-11.31,24.59-15,11.14-5.1,21.79,6.25,38.25.88,10.61-3.46,25.15,5.91,29.87,5.47,9.09-.84,31.09-4.2,41.05.93,5.53,2.84,7.35,8.29,1.19,18.24a81.83,81.83,0,0,0-6,12.11c-1,2.52-2,5.13-2.83,7.82a150.1,150.1,0,0,0-4.88,19.87c-4.28,24.37-2.6,48.27,6.79,50.8,11.7,3.15,60.14-29.35,71.88-18.57S953.68,1290.57,915.05,1324.49Z"/><path class="cls-36" d="M898.43,1174s96.32,28.69,91.31,38.32-55.41,8-95.62.63S898.43,1174,898.43,1174Z"/><path class="cls-5" d="M765.83,1465.62l-15.9-.06-266.55-1-32.28-.12,103.83-58.42q7.29-2,14.3-3.62c105.23-24,163.5,23.58,187.63,51.64A143.84,143.84,0,0,1,765.83,1465.62Z"/><path class="cls-5" d="M1259.18,1393.64a13.84,13.84,0,0,0,.11,1.83,14.85,14.85,0,0,0,1.72,5.37,15.06,15.06,0,0,0,13.23,7.86h211.81a15.07,15.07,0,0,0,0-30.13H1274.24A15.07,15.07,0,0,0,1259.18,1393.64Z"/><path class="cls-5" d="M1275.33,1375.85H1348a2.32,2.32,0,0,0,2.31-2.31h0a2.33,2.33,0,0,0-2.31-2.32h-72.63a2.33,2.33,0,0,0-2.31,2.32h0A2.32,2.32,0,0,0,1275.33,1375.85Z"/><rect class="cls-39" x="1279.35" y="1375.85" width="7.87" height="2.73" transform="translate(2566.56 2754.42) rotate(180)"/><path class="cls-39" d="M1261,1400.84a15.06,15.06,0,0,0,13.23,7.86h44.86v-7.86Z"/><path class="cls-11" d="M1529.15,1389.22v8.83a10.64,10.64,0,0,1-10.64,10.65H1297.86a10.64,10.64,0,0,1-10.64-10.65v-8.83a10.64,10.64,0,0,1,10.64-10.65h220.65A10.64,10.64,0,0,1,1529.15,1389.22Z"/><path class="cls-40" d="M1528.78,1400.84a10.64,10.64,0,0,1-10.27,7.86H1297.86a10.64,10.64,0,0,1-10.27-7.86Z"/><path class="cls-9" d="M1507.24,1393.69a16.74,16.74,0,0,0,4.38,11.63l.18.18a10.66,10.66,0,0,0,7.56,3.3c4.46,0,15.54-6.74,22.4-11.21,3.41-2.23,5.79-3.9,5.79-3.9s-2.38-1.67-5.79-3.9c-6.86-4.48-17.94-11.22-22.4-11.22a10.08,10.08,0,0,0-3.71.72,12.22,12.22,0,0,0-5.11,4,16.75,16.75,0,0,0-3.07,7.37s0,.07,0,.1A18.32,18.32,0,0,0,1507.24,1393.69Z"/><path class="cls-47" d="M1507.24,1393.69a16.74,16.74,0,0,0,4.38,11.63l34-11.68-38.12-2.85A18.32,18.32,0,0,0,1507.24,1393.69Z"/><path class="cls-48" d="M1510.54,1383.32l33.88,9.25-28.77-13.28A12.22,12.22,0,0,0,1510.54,1383.32Z"/><path class="cls-49" d="M1539.55,1393.69a4.18,4.18,0,0,0,2.21,3.9c3.41-2.23,5.79-3.9,5.79-3.9s-2.38-1.67-5.79-3.9A4.17,4.17,0,0,0,1539.55,1393.69Z"/><path class="cls-31" d="M198,1353.84a123.34,123.34,0,0,0,27.53-3.16c35.72-8.14,73.85-32.39,101.84-77.09,0,0-5.85-30-22.7-53.53h0c-11.69-16.3-31.87-35.66-56-35.79a51.23,51.23,0,0,0-35.08,12.92C199,1209.65,191.33,1227,180,1229.54c-11.15,2.47-23.23,8.43-33.42,16.92-1.67,1.39-3.29,2.84-4.84,4.37h0c-.65.63-1.28,1.26-1.91,1.92l0,0c-13.71,14.38-21.78,33.94-14.94,55.51a61.89,61.89,0,0,0,7.58,15.53C145,1342.89,169.45,1353.78,198,1353.84Z"/><path class="cls-50" d="M237.12,1196.78s20.89-7.3,30.75,5.33-3.43,20.47-14.57,18.45S226.68,1203.68,237.12,1196.78Z"/><path class="cls-51" d="M124.86,1308.3c1.58,5,4.55,9.9,7.58,15.54,21.42,39.84,51.4,56.56,74.18,62,25.18,6,72.33-4.17,91.08-16.28,30.77-19.88,40.15-55.29,29.67-96,0,0-5.86-30-22.7-53.53h0s-13.4,68.87-91.9,91.61C177.11,1322,147.05,1316.92,124.86,1308.3Z"/><path class="cls-14" d="M155.27,1209.65c.4-12.53,13.86-16.86,24.84-24.85s24-28.56,24-28.56a177,177,0,0,0-38.44,6.79C144.79,1169.14,155.27,1209.65,155.27,1209.65Z"/><path class="cls-15" d="M155.27,1209.65c-1.54-13,4.53-31.34,12.59-37s36.27-16.39,36.27-16.39a177,177,0,0,0-38.44,6.79C144.79,1169.14,155.27,1209.65,155.27,1209.65Z"/><path class="cls-51" d="M180,1229.54c-11.15,2.47-23.23,8.43-33.42,16.92,18.38-13.77,47.74-9.08,49.48-17.66,1.85-9.21,17-30.79,17.55-31.61C199,1209.65,191.33,1227,180,1229.54Z"/><path class="cls-52" d="M139.84,1252.76a26.59,26.59,0,0,0,1.91-1.92C141.1,1251.47,140.47,1252.1,139.84,1252.76Z"/><path class="cls-15" d="M194.79,1229.79h0c-9.13-14-27.07-21.07-40.51-24.51-10.69-2.73-26.19-4.78-33.61-5.66a1.76,1.76,0,0,0-1.56,2.86l2.64,3.24a14.35,14.35,0,0,0,10.76,5.3c12.87.32,41.79,2.91,56.41,19.42C190.56,1232.3,196.43,1232.29,194.79,1229.79Z"/><rect class="cls-53" x="364.99" y="958.18" width="15.04" height="177.27" transform="translate(-161.33 72.34) rotate(-9.13)"/><polygon class="cls-54" points="353.5 928.48 351.03 960.49 365.88 958.11 353.5 928.48"/><rect class="cls-53" x="495.66" y="972.77" width="15.04" height="177.27" transform="translate(202.32 -74.05) rotate(10.52)"/><polygon class="cls-54" points="525.07 943.57 511.98 972.88 526.76 975.63 525.07 943.57"/><rect class="cls-53" x="476.91" y="921.65" width="15.04" height="177.27" transform="translate(192.69 -71.49) rotate(10.52)"/><polygon class="cls-54" points="506.32 892.45 493.23 921.76 508.02 924.51 506.32 892.45"/><rect class="cls-31" x="406.71" y="1032" width="118.47" height="170.73"/><rect class="cls-11" x="347.47" y="1032" width="118.47" height="170.73"/><rect class="cls-14" x="1555.51" y="933.28" width="143.23" height="129.05" transform="translate(215.05 -286.4) rotate(10.77)"/><rect class="cls-15" x="1555.51" y="944.84" width="143.23" height="18.59" transform="translate(206.9 -287.18) rotate(10.77)"/><rect class="cls-9" x="636" y="916.23" width="143.23" height="129.05" transform="translate(-208.88 191.68) rotate(-13.46)"/><rect class="cls-47" x="624.28" y="917.62" width="143.23" height="28.38" transform="translate(-197.8 187.59) rotate(-13.46)"/><rect class="cls-55" x="1655.61" y="835.25" width="143.23" height="129.05" transform="translate(-129.32 311.44) rotate(-9.93)"/><rect class="cls-56" x="1646.93" y="836" width="143.23" height="28.38" transform="translate(-120.9 309.19) rotate(-9.93)"/></g></g></svg>