<svg xmlns="http://www.w3.org/2000/svg" xmlns:xlink="http://www.w3.org/1999/xlink" viewBox="0 0 409.23 417.16"><defs><style>.cls-1,.cls-15,.cls-16,.cls-17,.cls-19,.cls-21,.cls-29,.cls-30,.cls-31,.cls-5{fill:none;}.cls-2{isolation:isolate;}.cls-3{clip-path:url(#clip-path);}.cls-4{fill:#1a4ced;}.cls-15,.cls-17,.cls-31,.cls-5{stroke:#fff;}.cls-15,.cls-17,.cls-21,.cls-5{stroke-linecap:round;stroke-linejoin:round;}.cls-21,.cls-29,.cls-30,.cls-31,.cls-5{stroke-width:0.5px;}.cls-10,.cls-11,.cls-22,.cls-6,.cls-8{opacity:0.2;mix-blend-mode:multiply;}.cls-6{fill:url(#linear-gradient);}.cls-7{fill:#35826f;}.cls-9{fill:#4ebfa5;}.cls-10{fill:url(#linear-gradient-2);}.cls-11{fill:url(#linear-gradient-3);}.cls-12{fill:#942754;}.cls-13{fill:#ffcf30;}.cls-14{fill:#ff1a79;}.cls-15,.cls-16{stroke-width:0.52px;}.cls-16{stroke:#942754;}.cls-16,.cls-19,.cls-29,.cls-30,.cls-31{stroke-miterlimit:10;}.cls-17{stroke-width:0.75px;}.cls-18{fill:#fff;}.cls-19{stroke:#b5b5b5;stroke-width:0.77px;}.cls-20{fill:#547cde;}.cls-21,.cls-30{stroke:#ffcf30;}.cls-23{fill:#b514ff;}.cls-24{fill:#8ab1ff;}.cls-25{fill:#7c2aff;}.cls-26{fill:#5283ff;}.cls-27{fill:#0c11ff;}.cls-28{fill:#252933;}.cls-29{stroke:#103094;}.cls-31{opacity:0.15;}.cls-32{fill:url(#linear-gradient-4);}.cls-33{fill:url(#linear-gradient-5);}.cls-34{fill:url(#linear-gradient-6);}.cls-35{fill:url(#linear-gradient-7);}</style><clipPath id="clip-path" transform="translate(-149.09)"><rect class="cls-1" y="0.25" width="707.05" height="416.91" rx="15.53"/></clipPath><linearGradient id="linear-gradient" x1="373.07" y1="363.67" x2="601.36" y2="363.67" gradientUnits="userSpaceOnUse"><stop offset="0" stop-color="#fff"/><stop offset="1"/></linearGradient><linearGradient id="linear-gradient-2" x1="298.22" y1="369.32" x2="298.22" y2="304.63" xlink:href="#linear-gradient"/><linearGradient id="linear-gradient-3" x1="438.51" y1="351.85" x2="438.51" y2="310.96" xlink:href="#linear-gradient"/><linearGradient id="linear-gradient-4" x1="248.14" y1="356.53" x2="248.14" y2="314.74" xlink:href="#linear-gradient"/><linearGradient id="linear-gradient-5" x1="207.35" y1="356.53" x2="207.35" y2="314.74" xlink:href="#linear-gradient"/><linearGradient id="linear-gradient-6" x1="158.83" y1="356.53" x2="158.83" y2="314.74" xlink:href="#linear-gradient"/><linearGradient id="linear-gradient-7" x1="118.04" y1="356.53" x2="118.04" y2="314.74" xlink:href="#linear-gradient"/></defs><title>Asset 4</title><g class="cls-2"><g id="Layer_2" data-name="Layer 2"><g id="OBJECTS"><g class="cls-3"><path class="cls-4" d="M154.29,178.24c10.47-6.88,21.3,5.78,26.52,17.85s9.89,25.16,22.46,28.86,19.44,5.83,23.32,16.68,3.58,14.14,11.91,20.19,17,16.85,18.2,28.87l-43.46,19.94s-11.18-4.57-22.11-18.3-8.34-23.11-12.26-29-17.81-8.52-20.43-19.67,1.9-19.14-3.88-31.31S146,183.68,154.29,178.24Z" transform="translate(-149.09)"/><path class="cls-5" d="M160.54,185.05c13.81,37.12,21.78,57.19,75.14,115.28" transform="translate(-149.09)"/><path class="cls-5" d="M173.06,189.1s1.68,9.76-1,24.69" transform="translate(-149.09)"/><path class="cls-5" d="M160.07,220.49s2.28,4.24,23.11,14.17" transform="translate(-149.09)"/><path class="cls-5" d="M207.5,229.7s7.15,26.88,1.34,40.06" transform="translate(-149.09)"/><path class="cls-5" d="M188.11,282.27a65,65,0,0,0,33.65,2.6" transform="translate(-149.09)"/><path class="cls-4" d="M548.34,234.6c9.08,3.62,4.71,20.28.89,29.64s6.39,22.63-19.88,38.16l-32.43-19.79s7.83-22.91,20.56-27.5C530.58,250.38,535.59,229.51,548.34,234.6Z" transform="translate(-149.09)"/><path class="cls-5" d="M546.41,238.78s-12.1,29.73-33.24,53.74" transform="translate(-149.09)"/><path class="cls-5" d="M537.52,238.36s-2.93,10.55-.65,19.53" transform="translate(-149.09)"/><path class="cls-5" d="M545.91,274.48s-15,5.7-23.4,6.26" transform="translate(-149.09)"/><path class="cls-6" d="M321.93,310.19h228.3s-10,22.77-31.78,23.94c0,0,2,23.52-17.53,30.33-20.19,7-27.18,6.86-43.87,25S426,418.57,398,417,339,393.32,321.93,310.19Z" transform="translate(-149.09)"/><path class="cls-7" d="M321.93,310.19h228.3s-10-22.77-31.78-23.94c0,0,2-23.53-17.53-30.34-20.19-7-27.18-6.85-43.87-25S426,201.8,398,203.36,339,227.05,321.93,310.19Z" transform="translate(-149.09)"/><polygon class="cls-8" points="300.09 33.29 300.09 79.27 283.49 89.81 300.09 89.09 300.09 97.89 368.4 97.89 368.4 33.29 300.09 33.29"/><path class="cls-9" d="M165.08,317H431.35s-1.47-28.5-33.31-40.61-32.62-11.33-43.1-25.4-23.18-21.49-37.8-19.93-22.25,7-22.25,7-21.88-7.43-37,1.56S228,276.43,228,276.43,167,284.6,165.08,317Z" transform="translate(-149.09)"/><path class="cls-10" d="M165.08,317H431.35s-1.47,28.51-33.31,40.62-32.62,11.33-43.1,25.39-23.18,21.49-37.8,19.93-22.25-7-22.25-7-21.88,7.42-37-1.57S228,357.66,228,357.66,167,349.49,165.08,317Z" transform="translate(-149.09)"/><path class="cls-11" d="M467.16,325.45a42.82,42.82,0,0,1-24.41,10.36V413.4h-8.48V335.81a42.8,42.8,0,0,1-24.41-10.36A1.79,1.79,0,0,1,411,322.3h55A1.79,1.79,0,0,1,467.16,325.45Z" transform="translate(-149.09)"/><rect class="cls-4" x="285.18" y="232.8" width="8.48" height="81.52"/><polygon class="cls-8" points="293.66 268.41 293.66 232.8 285.18 232.8 285.18 258.43 293.66 268.41"/><path class="cls-4" d="M464.66,235.37h-52.3c-1.72,0-3.21-1.59-3.57-3.81l-1.12-7c-.48-3,1.25-5.8,3.57-5.8h54.54c2.32,0,4.05,2.81,3.57,5.8l-1.12,7C467.87,233.78,466.38,235.37,464.66,235.37Z" transform="translate(-149.09)"/><path class="cls-4" d="M438.51,310.19a43.17,43.17,0,0,0-28.65,10.55A1.79,1.79,0,0,0,411,323.9h55a1.79,1.79,0,0,0,1.15-3.16A43.17,43.17,0,0,0,438.51,310.19Z" transform="translate(-149.09)"/><path class="cls-4" d="M467.16,320.74a42.81,42.81,0,0,0-24.41-10.35V232.8h-8.48v77.59a42.79,42.79,0,0,0-24.41,10.35A1.79,1.79,0,0,0,411,323.9h55A1.79,1.79,0,0,0,467.16,320.74Z" transform="translate(-149.09)"/><rect class="cls-12" x="70.37" y="205.71" width="9.61" height="4.93" rx="0.66"/><path class="cls-13" d="M239.39,170.48a15.13,15.13,0,1,0-30.25,0,22.72,22.72,0,0,0,2.46,9.68,28.23,28.23,0,0,1,3.05,11.44l.2,3.12h18.83l.2-3.12a28.32,28.32,0,0,1,3.05-11.45A22.64,22.64,0,0,0,239.39,170.48Z" transform="translate(-149.09)"/><path class="cls-14" d="M65.17,194.72h20a0,0,0,0,1,0,0v11.9A1.23,1.23,0,0,1,84,207.85H66.4a1.23,1.23,0,0,1-1.23-1.23v-11.9A0,0,0,0,1,65.17,194.72Z"/><path class="cls-15" d="M227.9,182.69v-8.46h0c0-3.08-.54-4.33-1.16-4.33-.32,0-.62.32-.83,1.06-.21-.74-.5-1.06-.82-1.06s-.61.32-.82,1.06c-.21-.74-.51-1.06-.83-1.06s-.61.32-.82,1.06c-.21-.74-.5-1.06-.82-1.06-.63,0-1.14,1.25-1.16,4.33h0v8.46" transform="translate(-149.09)"/><line class="cls-16" x1="65.17" y1="197.69" x2="85.19" y2="197.69"/><line class="cls-16" x1="65.17" y1="200.09" x2="85.19" y2="200.09"/><line class="cls-16" x1="65.17" y1="202.49" x2="85.19" y2="202.49"/><line class="cls-16" x1="65.17" y1="204.88" x2="85.19" y2="204.88"/><line class="cls-17" x1="75.59" y1="142.56" x2="75.59" y2="149.2"/><line class="cls-17" x1="61.02" y1="146.49" x2="64.32" y2="152.24"/><line class="cls-17" x1="50.35" y1="157.22" x2="56.07" y2="160.54"/><line class="cls-17" x1="94.4" y1="182.81" x2="100.12" y2="186.14"/><line class="cls-17" x1="46.45" y1="171.89" x2="53.05" y2="171.89"/><line class="cls-17" x1="97.31" y1="171.89" x2="103.91" y2="171.89"/><line class="cls-17" x1="50.35" y1="186.55" x2="56.07" y2="183.23"/><line class="cls-17" x1="94.4" y1="160.96" x2="100.12" y2="157.64"/><line class="cls-17" x1="86.45" y1="152.96" x2="89.75" y2="147.21"/><polygon class="cls-18" points="82.03 127.56 89.86 110.22 71 111.88 74.46 116.81 57.89 127.21 63.3 134.91 78.56 122.64 82.03 127.56"/><polygon class="cls-18" points="385.09 91.23 377.26 73.89 396.12 75.55 392.65 80.48 409.23 90.88 403.81 98.58 388.56 86.31 385.09 91.23"/><path class="cls-18" d="M185.4,82h97.45s.52-25.13-23.3-22.27c0,0-5.82-14.58-24.84-11.2s-19.16,18.11-19.16,18.11-13.85-4.17-17.73,9.11C197.82,75.73,187.08,76.38,185.4,82Z" transform="translate(-149.09)"/><path class="cls-18" d="M302.63,28.33l-1.9,1.53-1.9,1.53c3.95,6.83,5.81,17,5.81,17,3.47-.86,8.15,4.64,8.15,4.64l7.78-6.28s-4.31-5.79-2.72-9C317.85,37.74,308.39,33.7,302.63,28.33Z" transform="translate(-149.09)"/><line class="cls-19" x1="151.64" y1="29.86" x2="161.28" y2="41.97"/><path class="cls-19" d="M312.64,42a1.79,1.79,0,0,1-.27,2.5,1.76,1.76,0,0,1-2.49-.27,1.79,1.79,0,0,1,.27-2.5A1.77,1.77,0,0,1,312.64,42Z" transform="translate(-149.09)"/><polygon class="cls-20" points="178.59 53.9 169.09 61.56 162.84 53.72 172.34 46.06 178.59 53.9"/><path class="cls-4" d="M318.18,61.56l32.73,41.1c.54.68,3.11-.49,5.73-2.6S361,95.67,360.41,95L327.68,53.9Z" transform="translate(-149.09)"/><path class="cls-21" d="M314.75,70.13c-8.15,18.37-27.91,35.57-45,34.58-14.69-.85-14.43-8.66-12.42-11.53,2.42-3.45,10.87-3.07,11.06,5.4s-4.78,17.66-12.67,25.67a68.53,68.53,0,0,0-12.19,17.38" transform="translate(-149.09)"/><path class="cls-21" d="M331.45,48c5.43-10.3,16.5-19.48,27.95-23.78s21.55-8,23.68-14.84-4.46-11.33-11.64-8-6,17.19,10.87,16,48.14-5.47,56.1,9.37" transform="translate(-149.09)"/><polygon class="cls-13" points="297.84 29.86 297.84 75.84 281.25 86.38 297.84 85.66 297.84 94.46 366.16 94.46 366.16 29.86 297.84 29.86"/><ellipse class="cls-18" cx="325.17" cy="53.72" rx="15.47" ry="15.56"/><rect class="cls-18" x="325.17" y="53.72" width="26.27" height="26.44"/><path class="cls-14" d="M474.26,69.29a15.51,15.51,0,0,0,15.46-15.57H474.26Z" transform="translate(-149.09)"/><g class="cls-22"><rect x="342.46" y="109.51" width="52.48" height="117.54" rx="4.83"/></g><rect class="cls-18" x="339.62" y="106.34" width="52.48" height="117.54" rx="4.83"/><path class="cls-13" d="M511,123.19a6.06,6.06,0,1,1-6.06-6.09A6.08,6.08,0,0,1,511,123.19Z" transform="translate(-149.09)"/><ellipse class="cls-14" cx="375.89" cy="123.19" rx="6.06" ry="6.1"/><path class="cls-7" d="M511,142a6.06,6.06,0,1,1-6.06-6.1A6.08,6.08,0,0,1,511,142Z" transform="translate(-149.09)"/><path class="cls-23" d="M531,142a6.06,6.06,0,1,1-6.06-6.1A6.08,6.08,0,0,1,531,142Z" transform="translate(-149.09)"/><path class="cls-24" d="M511,160.84a6.06,6.06,0,1,1-6.06-6.09A6.08,6.08,0,0,1,511,160.84Z" transform="translate(-149.09)"/><path class="cls-25" d="M531,160.84a6.06,6.06,0,1,1-6.06-6.09A6.08,6.08,0,0,1,531,160.84Z" transform="translate(-149.09)"/><path class="cls-26" d="M511,179.67a6.06,6.06,0,1,1-6.06-6.1A6.08,6.08,0,0,1,511,179.67Z" transform="translate(-149.09)"/><ellipse class="cls-27" cx="375.89" cy="179.67" rx="6.06" ry="6.1"/><path class="cls-24" d="M523.14,199.76l-4.49-4.52-12.6,12.68a3.85,3.85,0,0,0-1.05,3.43h0a1.19,1.19,0,0,1-.33,1.06l-1.14,1.14a1,1,0,0,0,0,1.42h0a1,1,0,0,0,1.41,0l1.14-1.15a1.15,1.15,0,0,1,1-.33h0a3.81,3.81,0,0,0,3.42-1.06Z" transform="translate(-149.09)"/><path class="cls-14" d="M525,199.14l-.81-.82,1.65-1.66a2.9,2.9,0,0,0,0-4.1,2.86,2.86,0,0,0-4.08,0l-1.65,1.66-.81-.82a.86.86,0,0,0-1.22,0,.87.87,0,0,0,0,1.23l5.7,5.74a.87.87,0,1,0,1.22-1.23Z" transform="translate(-149.09)"/><path class="cls-4" d="M368.35,302.86l-1,12.77s-15.53,6.25-15.53,8.33,27.44,2.74,28.47,0,2.33-21.1,2.33-21.1Z" transform="translate(-149.09)"/><path class="cls-4" d="M336.57,302.86l-3.9,12.77s-15.53,6.25-15.53,8.33,27.44,2.74,28.47,0,5.2-21.1,5.2-21.1Z" transform="translate(-149.09)"/><path class="cls-13" d="M424.43,187s-60.95,3.26-69,21.23c-8.12,18.2-21,97.35-21,97.35h17.15L374.54,221s60.57-1.85,74-8,18.63-26,18.63-26Z" transform="translate(-149.09)"/><path class="cls-8" d="M359.14,277.84,374.54,221s60.57-1.85,74-8,18.63-26,18.63-26H424.43s-60.95,3.26-69,21.23a71,71,0,0,0-2.91,8.32Z" transform="translate(-149.09)"/><path class="cls-13" d="M467.14,187a38.36,38.36,0,0,1,0,21.69c-3.49,11.72-16.31,14.45-27.37,14.45h-36.9A5.85,5.85,0,0,0,397.1,228l-12.66,77.51h-19.8s2.14-70.68,6.6-86.15c6.73-23.31,24.07-24.38,66.2-28.09Z" transform="translate(-149.09)"/><path class="cls-4" d="M396,108.62c-8,6.84-12,54.7-12,54.7l-33.78,7.81v10.16l36.06-2a12.62,12.62,0,0,0,11.67-10.24l6.62-34.46Z" transform="translate(-149.09)"/><path class="cls-18" d="M393.57,176.6s-8.4,1.51-11.94,2.44c-3.08.81-17.23,8.4-17.23,10s9.71,1.08,9.71,1.08,9.85-2.39,11.3-5.42l9.95-.64Z" transform="translate(-149.09)"/><path class="cls-8" d="M398.66,165.26l5.89-30.66-8.54-26c-3.48,3-6.21,13.81-8.19,25Z" transform="translate(-149.09)"/><path class="cls-4" d="M414,99.24c11.38-1.64,27-.78,34.56,9s17.47,52,18.63,62.71,6.21,17.38-3.88,17.38h-39.8c-9.32,0-9.7-1.17-9.51-11.52s-1.36-20.91-11.65-38.1-10.48-25-7-30.08S408.46,100,414,99.24Z" transform="translate(-149.09)"/><path class="cls-8" d="M414,176.8c-.19,10.35.19,11.52,9.51,11.52h39.8c10.09,0,5.05-6.64,3.88-17.38S456.08,118,448.51,108.23c-.44-.56-.9-1.08-1.38-1.58L413.27,166A60.48,60.48,0,0,1,414,176.8Z" transform="translate(-149.09)"/><path class="cls-4" d="M442.14,103.78c11.47,1,10.63,30.43,10.63,40.59s.2,29.89-9.71,33-49.89,8.79-49.89,8.79l-1.45-10,40.47-13.48s.78-25.2,1-33.8S431.11,102.84,442.14,103.78Z" transform="translate(-149.09)"/><path class="cls-4" d="M395.71,79.43c1.52,3.46.76,7.15-1.7,8.25s-5.7-.82-7.22-4.27-.75-7.15,1.71-8.25S394.19,76,395.71,79.43Z" transform="translate(-149.09)"/><path class="cls-18" d="M389.79,78.54a124.93,124.93,0,0,0,4.71,15c1.17,2.92,5,3.69,10.18,2.28,0,0,2,5.93,3.35,9s15.82,1.13,14.07-4.33-4-11.77-4-11.77S424.14,61.47,405,59.68,384.45,75.37,389.79,78.54Z" transform="translate(-149.09)"/><path class="cls-28" d="M398.31,66s4.5,6.55,12,6.66c0,0,1.54,11.37,7.81,16.08,0,0,9.71-4.71,6.28-10.45,0,0,8.41-4.94-1.66-14.7,0,0,6.23-2.32,6-5s-11.77-.88-11.77-.88-13.21-17.72-21.81-16.1c-4.86.92-5.69,8.62-5.69,8.62s-10.18-4-14.21,1.61S380.43,68,380.43,68s-4,1.26-3.91,4.37c.16,6.17,13.27,6.2,13.27,6.2l-.36-3.9s3.79.91,3.44-.35a9.35,9.35,0,0,0-2.25-3S396.77,69.7,398.31,66Z" transform="translate(-149.09)"/><ellipse class="cls-4" cx="415.26" cy="77.85" rx="6.84" ry="4.88" transform="translate(109.14 470.08) rotate(-78.8)"/><path class="cls-4" d="M416.77,77.46a1.92,1.92,0,0,1-.41,0,1.57,1.57,0,0,1-1.09-1.92c2.2-8.3.49-19.85.48-20a1.55,1.55,0,1,1,3.07-.47c.07.5,1.82,12.3-.55,21.25A1.56,1.56,0,0,1,416.77,77.46Z" transform="translate(-149.09)"/><polyline class="cls-29" points="284.01 120 283.11 162.73 242.63 176.21"/><path class="cls-28" d="M366.47,192.74H285.76L272,132.29a2.72,2.72,0,0,1,2.64-3.34h74.07a4.07,4.07,0,0,1,4,3.19Z" transform="translate(-149.09)"/><rect class="cls-28" x="169.13" y="189.29" width="90.72" height="3.45"/><polygon class="cls-18" points="138.78 200.24 117.33 338.81 111.89 338.81 126.87 200.24 138.78 200.24"/><polygon class="cls-18" points="164.92 324.87 157.71 200.24 145.8 200.24 158.84 324.87 164.92 324.87"/><polygon class="cls-18" points="228.09 200.24 206.63 338.81 201.2 338.81 216.18 200.24 228.09 200.24"/><polygon class="cls-18" points="254.23 324.87 247.01 200.24 235.11 200.24 248.14 324.87 254.23 324.87"/><g class="cls-22"><polygon points="137.38 209.29 138.78 200.24 126.87 200.24 126.13 207.14 137.38 209.29"/><polygon points="157.71 200.24 145.8 200.24 146.94 211.13 158.46 213.33 157.71 200.24"/></g><g class="cls-22"><polygon points="226.7 209.29 228.1 200.24 216.19 200.24 215.45 207.14 226.7 209.29"/><polygon points="247.02 200.24 235.12 200.24 236.26 211.13 247.78 213.33 247.02 200.24"/></g><rect class="cls-18" x="106.5" y="192.74" width="153.12" height="7.5"/><line class="cls-30" x1="106.5" y1="197.65" x2="259.85" y2="197.65"/><line class="cls-31" x1="199.34" y1="132.86" x2="213.29" y2="192.74"/><path class="cls-14" d="M326.2,160.57a9.33,9.33,0,1,1-9.33-9.39A9.36,9.36,0,0,1,326.2,160.57Z" transform="translate(-149.09)"/><g class="cls-22"><polygon class="cls-32" points="250.86 383.13 254.23 324.9 248.14 324.9 242.05 383.13 250.86 383.13"/><polygon class="cls-33" points="213.5 383.13 206.63 338.81 201.2 338.81 205.99 383.13 213.5 383.13"/><polygon class="cls-34" points="161.55 383.13 164.92 324.9 158.84 324.9 152.74 383.13 161.55 383.13"/><polygon class="cls-35" points="124.19 383.13 117.33 338.81 111.89 338.81 116.68 383.13 124.19 383.13"/></g><path class="cls-17" d="M350.87,48.52a5.41,5.41,0,1,1-5.41-5.43A5.43,5.43,0,0,1,350.87,48.52Z" transform="translate(-149.09)"/><path class="cls-17" d="M204.84,101.67a5.4,5.4,0,1,1-5.4-5.44A5.42,5.42,0,0,1,204.84,101.67Z" transform="translate(-149.09)"/><path class="cls-17" d="M324.62,107.1a5.4,5.4,0,1,1-5.4-5.43A5.42,5.42,0,0,1,324.62,107.1Z" transform="translate(-149.09)"/></g></g></g></g></svg>