<svg xmlns="http://www.w3.org/2000/svg" xmlns:xlink="http://www.w3.org/1999/xlink" viewBox="0 0 1320 1100"><defs><style>.cls-1{fill:#fff;}.cls-2{fill:url(#Безымянный_градиент_54);}.cls-3{fill:url(#Безымянный_градиент_54-2);}.cls-4{fill:#a442b9;}.cls-5{fill:url(#Безымянный_градиент_54-3);}.cls-6{fill:url(#Безымянный_градиент_54-4);}</style><linearGradient id="Безымянный_градиент_54" x1="610.16" y1="141.32" x2="795.26" y2="973.33" gradientUnits="userSpaceOnUse"><stop offset="0" stop-color="#ff5682"/><stop offset="1" stop-color="#ffe632"/></linearGradient><linearGradient id="Безымянный_градиент_54-2" x1="311.83" y1="900.16" x2="971.25" y2="240.74" xlink:href="#Безымянный_градиент_54"/><linearGradient id="Безымянный_градиент_54-3" x1="4211.47" y1="3582.11" x2="4353.83" y2="3439.76" gradientTransform="translate(5136.14 4267.94) rotate(180)" xlink:href="#Безымянный_градиент_54"/><linearGradient id="Безымянный_градиент_54-4" x1="507.16" y1="365.64" x2="219.85" y2="360.45" xlink:href="#Безымянный_градиент_54"/></defs><title>blob2</title><g id="Layer_2" data-name="Layer 2"><g id="Layer_1-2" data-name="Layer 1"><rect class="cls-1" width="1320" height="1100"/><path class="cls-2" d="M1204.42,472.35c-26.86-99.29-123.3-251.87-249.8-308.4-128.83-57.58-343.66-82.27-529,90.61-117,109.1-226.6,312.81-186,561.12C273.83,1025,458.78,1130.59,626.94,959.94c186.21-189,295.81-135.07,432.62-172.51C1242.79,737.28,1234.37,583,1204.42,472.35Z"/><path class="cls-3" d="M953.91,277.12c-128.74-37.79-325-61.52-493.77,17.26C368.86,337,239.39,401.08,131.66,579.52,29.45,748.82,190.28,721.19,296.43,729.36s194.87,42.23,250.32,111.7,93.47,122.59,202.79,99.44,153.67-94,166.93-181.41c10.08-66.51,15.26-194.55,143.59-270.38C1171.47,422.88,1083.82,315.26,953.91,277.12Z"/><path class="cls-4" d="M989.27,548.2c-2.53,3-4.95,6.07-7.26,9.13,61,98.31,98.39,167,80.48,228.91-9.39,32.49-27.35,59.55-51.87,78.25-27.88,21.25-63.81,32-106.79,32a308.13,308.13,0,0,1-52.06-4.75l-.79-.13c-39.42-6.91-72.27-17-101.24-25.9C709.94,853.51,675.58,843,635.51,843c-24.83,0-50.11,4.16-77.06,12.79-1.56.48-3.13,1-4.71,1.54-62.72,21-118.1,38.43-160.25,38.43-49.43,0-75.9-24.2-88.53-80.89-4.92-22.07-8.66-50.74-7.81-85.41,1-41.2,8.54-90.95,28.32-148.3C360.36,479.91,426,375.56,520.74,270.67q8.19-9,16.63-18.09c51.17-54.76,136.84-127.4,212.87-166.25,19.28-9.84,37.65-14.83,54.61-14.83,42.81,0,72.86,32.71,82.41,89.78,4.82,28.62,4.45,59.27,4.07,91.7,0,2.75-.07,5.5-.11,8.27,3.7.79,7.35,1.58,11,2.42.37-36.76,1.41-71.46-4.07-104.21-10.85-64.68-46.4-99-93.28-99-18.39,0-38.52,5.28-59.62,16-74.85,38.23-161,109.73-215.89,168.52Q513.83,261.65,499.51,278C341.2,458.33,289.12,613.43,286.16,728.68c-.86,32.87,2.26,62.51,8.07,88.55,14.74,66.2,48.84,89.5,99.26,89.5,43.23,0,98.45-17.12,163.75-39,2.92-1,5.81-1.91,8.64-2.75,25.74-7.85,48.4-11,69.63-11,65.7,0,117.75,30.3,205.18,46.95,2.77.53,5.56,1,8.4,1.54a317.49,317.49,0,0,0,54.74,5c96,0,150.06-51.94,169.24-118.21C1092.43,722.33,1052.79,650.32,989.27,548.2Z"/><path class="cls-1" d="M628.15,420.41a12.76,12.76,0,0,0,18.56,0,13.2,13.2,0,0,0,3.93-9.56V380.78h7.88v30.05a19.77,19.77,0,0,1-6.16,14.64,21.42,21.42,0,0,1-29.86,0,19.78,19.78,0,0,1-6.16-14.62V380.78h7.88v30.05A13.19,13.19,0,0,0,628.15,420.41Z"/><path class="cls-1" d="M676.7,396.52v3.56l.46-.45a12.59,12.59,0,0,1,1.32-1,16.54,16.54,0,0,1,2.15-1.29,14.23,14.23,0,0,1,2.9-1.05,13.77,13.77,0,0,1,3.54-.47,13.2,13.2,0,0,1,10.06,4.08q3.86,4.08,3.86,11v20h-7.15v-20a8.47,8.47,0,0,0-2.36-6.14,7.79,7.79,0,0,0-5.84-2.45,8.4,8.4,0,0,0-6.51,2.64q-2.43,2.63-2.43,7.38v18.56h-7.15v-34.3Z"/><path class="cls-1" d="M718,382.74a4.47,4.47,0,1,1-3.07-1.22A4.14,4.14,0,0,1,718,382.74Zm.49,13.78v34.3h-7.15v-34.3Z"/><path class="cls-1" d="M745.62,430.82H738.5l-14-34.3H732l10,25,10-25h7.51Z"/><path class="cls-1" d="M797.05,416.17h-26.8a10.29,10.29,0,0,0,3.58,6.28A10.48,10.48,0,0,0,781,425.1a11.85,11.85,0,0,0,5.6-1.36,12.2,12.2,0,0,0,3.68-2.65l1.08-1.33L796,424.4c-.13.19-.35.45-.64.79a20.6,20.6,0,0,1-1.87,1.71,21.18,21.18,0,0,1-3,2.13,20.68,20.68,0,0,1-4.17,1.7,17.75,17.75,0,0,1-5.29.79,17.09,17.09,0,0,1-12.58-5.36,17.65,17.65,0,0,1-5.28-12.85,17.57,17.57,0,0,1,17.49-17.52,16.41,16.41,0,0,1,16.81,16.82ZM780.62,401.9a9.61,9.61,0,0,0-6.51,2.28,11.16,11.16,0,0,0-3.54,5.91h19.85a9.85,9.85,0,0,0-3.24-5.91A9.63,9.63,0,0,0,780.62,401.9Z"/><path class="cls-1" d="M824.55,402.59a13.72,13.72,0,0,0-3.21-.35,8.42,8.42,0,0,0-6.51,2.64c-1.62,1.75-2.42,4.21-2.42,7.38v18.56h-7.16v-34.3h7.16v3.56l.45-.45a12,12,0,0,1,1.33-1,16.42,16.42,0,0,1,2.14-1.29,14.46,14.46,0,0,1,2.9-1.05,13.77,13.77,0,0,1,3.54-.47h1.78Z"/><path class="cls-1" d="M852.05,400.46l-4.65,4.64-.82-.78a9.21,9.21,0,0,0-2.23-1.29,8.07,8.07,0,0,0-3.4-.79,5.72,5.72,0,0,0-3.65,1.07A3.13,3.13,0,0,0,836,405.8a3.07,3.07,0,0,0,1.29,2.51,8.85,8.85,0,0,0,3.25,1.54c1.3.35,2.7.79,4.2,1.31a36.11,36.11,0,0,1,4.22,1.76,8.07,8.07,0,0,1,3.26,3,8.83,8.83,0,0,1,1.3,4.89,9.75,9.75,0,0,1-3.58,7.57,13.62,13.62,0,0,1-9.3,3.14,18,18,0,0,1-4.8-.63,15.54,15.54,0,0,1-3.75-1.5,21.44,21.44,0,0,1-2.56-1.76,9.47,9.47,0,0,1-1.59-1.52l-.52-.66,4.63-4.64a14.76,14.76,0,0,0,1,1.22,11.64,11.64,0,0,0,2.93,1.9,9.9,9.9,0,0,0,4.62,1.17,6.65,6.65,0,0,0,4.29-1.17,3.81,3.81,0,0,0,1.43-3.12,3.05,3.05,0,0,0-1.29-2.5,9.38,9.38,0,0,0-3.24-1.53c-1.31-.36-2.71-.81-4.21-1.33a37.89,37.89,0,0,1-4.22-1.74,8,8,0,0,1-3.26-3,9.18,9.18,0,0,1,2.18-11.89,12.7,12.7,0,0,1,8.67-3,17.17,17.17,0,0,1,4,.47,12.61,12.61,0,0,1,3.15,1.15,16.33,16.33,0,0,1,2.15,1.4,14.8,14.8,0,0,1,1.34,1.13Z"/><path class="cls-1" d="M888.82,430.82h-7.15v-3.56c-.09.1-.25.25-.47.46a14.39,14.39,0,0,1-1.33,1,17.34,17.34,0,0,1-2.14,1.29,16,16,0,0,1-2.9,1,14,14,0,0,1-3.52.45,12.65,12.65,0,0,1-8.69-3,9,9,0,0,1-3.46-6.94,10,10,0,0,1,2.67-7.08,12.41,12.41,0,0,1,7.31-3.63l12.53-2.16a6,6,0,0,0-2-4.58,7.29,7.29,0,0,0-5.14-1.85,10.63,10.63,0,0,0-4.94,1.14,8.49,8.49,0,0,0-3.05,2.28l-.95,1.23-4.64-4.65c.14-.18.33-.42.58-.71a17.68,17.68,0,0,1,1.64-1.54,20.71,20.71,0,0,1,2.7-2,15.84,15.84,0,0,1,3.79-1.55,17.57,17.57,0,0,1,4.87-.68,14.58,14.58,0,0,1,10.29,3.71,12,12,0,0,1,4,9.17Zm-16.43-5.72a8.94,8.94,0,0,0,6.82-2.6q2.46-2.6,2.46-7.42v-.69l-11.1,1.78a5.55,5.55,0,0,0-3.1,1.57,4.22,4.22,0,0,0-1.19,3.07,3.74,3.74,0,0,0,1.66,3A7.07,7.07,0,0,0,872.39,425.1Z"/><path class="cls-1" d="M906.65,380.78v50h-7.11v-50Z"/><path class="cls-1" d="M611.35,507.66l20.72-50h7.85l20.73,50h-8.2l-5.37-13.22H624.92l-5.37,13.22ZM636,466.55l-8.24,20.73h16.44Z"/><path class="cls-1" d="M685.67,472.62a15.8,15.8,0,0,1,11.79,5.22,18.52,18.52,0,0,1,0,25.3,15.82,15.82,0,0,1-11.78,5.22,15.65,15.65,0,0,1-3.75-.46,13.91,13.91,0,0,1-3.12-1.13,19.77,19.77,0,0,1-2.29-1.4,11.83,11.83,0,0,1-1.41-1.13l-.52-.52v3.94h-7.12v-50h7.12V477.3c.32-.32.78-.75,1.39-1.29a17.21,17.21,0,0,1,3.8-2.09A14.39,14.39,0,0,1,685.67,472.62Zm-7.94,26a9.44,9.44,0,0,0,14.43,0,12,12,0,0,0,0-16.16,9.44,9.44,0,0,0-14.43,0,11.94,11.94,0,0,0,0,16.16Z"/><path class="cls-1" d="M732.12,477.3l-4.65,4.64c-.19-.18-.46-.45-.82-.78a9.21,9.21,0,0,0-2.23-1.29,7.93,7.93,0,0,0-3.4-.79,5.78,5.78,0,0,0-3.65,1.06,3.12,3.12,0,0,0-1.34,2.5,3.07,3.07,0,0,0,1.29,2.51,8.88,8.88,0,0,0,3.24,1.54c1.31.35,2.71.78,4.21,1.31a36.11,36.11,0,0,1,4.22,1.76,8.13,8.13,0,0,1,3.26,3,8.91,8.91,0,0,1,1.29,4.89,9.75,9.75,0,0,1-3.57,7.57,13.62,13.62,0,0,1-9.3,3.14,17.94,17.94,0,0,1-4.8-.63,15.54,15.54,0,0,1-3.75-1.5,22.46,22.46,0,0,1-2.57-1.76A10.18,10.18,0,0,1,708,503l-.53-.66,4.64-4.64c.24.32.58.73,1,1.22a12.36,12.36,0,0,0,2.93,1.9,10,10,0,0,0,4.63,1.17,6.65,6.65,0,0,0,4.29-1.17,3.84,3.84,0,0,0,1.43-3.12,3,3,0,0,0-1.29-2.5,9.53,9.53,0,0,0-3.25-1.54q-2-.54-4.2-1.32a39.91,39.91,0,0,1-4.22-1.75,7.93,7.93,0,0,1-3.26-3,8.89,8.89,0,0,1-1.3-4.9,9.08,9.08,0,0,1,3.47-7,12.75,12.75,0,0,1,8.68-3,16.51,16.51,0,0,1,4,.48,12.31,12.31,0,0,1,3.16,1.15,18.2,18.2,0,0,1,2.15,1.39,16.35,16.35,0,0,1,1.34,1.14Z"/><path class="cls-1" d="M745.65,469.07v-7.16h6.42v11.45h7.16v6.42h-7.16v17.8a4.25,4.25,0,0,0,1.22,3.13,4.16,4.16,0,0,0,3.07,1.23,8.63,8.63,0,0,0,1.7-.18,6.57,6.57,0,0,0,1.37-.38l.53-.14v6.42a16.33,16.33,0,0,1-5,.7q-10,0-10-10.71V479.78H738.5v-6.42h3.59C744.47,473.36,745.65,471.93,745.65,469.07Z"/><path class="cls-1" d="M787.8,479.43a13.66,13.66,0,0,0-3.21-.35,8.41,8.41,0,0,0-6.5,2.63q-2.43,2.64-2.43,7.39v18.56h-7.15v-34.3h7.15v3.56l.45-.46a13.08,13.08,0,0,1,1.33-1,19.11,19.11,0,0,1,2.15-1.29,15,15,0,0,1,2.89-1,13.47,13.47,0,0,1,3.54-.48h1.78Z"/><path class="cls-1" d="M821,507.66h-7.15V504.1l-.47.45a14,14,0,0,1-1.33,1,15.19,15.19,0,0,1-2.14,1.29,14.6,14.6,0,0,1-2.9,1,14.06,14.06,0,0,1-3.52.46,12.7,12.7,0,0,1-8.69-3,9,9,0,0,1-3.46-6.94,10,10,0,0,1,2.67-7.09,12.45,12.45,0,0,1,7.31-3.62l12.53-2.17a6,6,0,0,0-2-4.57,7.29,7.29,0,0,0-5.14-1.85,10.75,10.75,0,0,0-4.94,1.13,8.64,8.64,0,0,0-3.06,2.29l-.94,1.22-4.64-4.64c.14-.18.33-.42.58-.71a16.37,16.37,0,0,1,1.64-1.54,20.71,20.71,0,0,1,2.7-2,15.84,15.84,0,0,1,3.79-1.55,17.21,17.21,0,0,1,4.87-.69A14.54,14.54,0,0,1,817,476.34a12,12,0,0,1,4,9.16Zm-16.43-5.72a8.94,8.94,0,0,0,6.82-2.6q2.46-2.61,2.46-7.42v-.7L802.77,493a5.64,5.64,0,0,0-3.1,1.57,4.26,4.26,0,0,0-1.19,3.08,3.75,3.75,0,0,0,1.66,3A7,7,0,0,0,804.59,501.94Z"/><path class="cls-1" d="M834.2,503a17.88,17.88,0,0,1,12.54-30.42,18.15,18.15,0,0,1,12.42,5.17l1.5,1.64L856,484.07a11.22,11.22,0,0,0-1.06-1.38,14,14,0,0,0-3.11-2.21,10,10,0,0,0-5.11-1.4,10.16,10.16,0,0,0-7.56,3.32,11.9,11.9,0,0,0,0,16.22,10.27,10.27,0,0,0,12.67,2,12.23,12.23,0,0,0,3.44-2.66l1.08-1.32,4.64,4.64c-.14.18-.35.45-.63.78a16.41,16.41,0,0,1-1.81,1.71,20.41,20.41,0,0,1-2.93,2.13,18.94,18.94,0,0,1-4,1.71,16.12,16.12,0,0,1-4.92.79A17.16,17.16,0,0,1,834.2,503Z"/><path class="cls-1" d="M872.42,469.07v-7.16h6.42v11.45H886v6.42h-7.16v17.8a4.25,4.25,0,0,0,1.22,3.13,4.16,4.16,0,0,0,3.07,1.23,8.63,8.63,0,0,0,1.7-.18,6.88,6.88,0,0,0,1.38-.38l.52-.14v6.42a16.38,16.38,0,0,1-5,.7q-10,0-10-10.71V479.78h-6.45v-6.42h3.59Q872.42,473.36,872.42,469.07Z"/><path class="cls-1" d="M617.07,534.46h17.51a24.48,24.48,0,0,1,17.9,7.4,24.52,24.52,0,0,1,0,35.24,24.52,24.52,0,0,1-17.9,7.4H617.07Zm17.51,7.15h-9.66v35.73h9.66A16.68,16.68,0,0,0,647,572.16a18.33,18.33,0,0,0,0-25.37A16.72,16.72,0,0,0,634.58,541.61Z"/><path class="cls-1" d="M700.64,569.84h-26.8a10.29,10.29,0,0,0,3.58,6.28,10.48,10.48,0,0,0,7.17,2.65,11.85,11.85,0,0,0,5.6-1.36,12.16,12.16,0,0,0,3.68-2.65l1.08-1.32,4.64,4.64c-.14.18-.35.44-.64.78a19.1,19.1,0,0,1-1.87,1.71,21.28,21.28,0,0,1-3,2.13,20.08,20.08,0,0,1-4.17,1.71,18,18,0,0,1-5.28.78A17,17,0,0,1,672,579.84,17.64,17.64,0,0,1,666.72,567a17.58,17.58,0,0,1,17.5-17.52A16.41,16.41,0,0,1,701,566.28Zm-16.43-14.27a9.57,9.57,0,0,0-6.51,2.28,11.27,11.27,0,0,0-3.55,5.92H694a9.83,9.83,0,0,0-3.25-5.92A9.61,9.61,0,0,0,684.21,555.57Z"/><path class="cls-1" d="M730.65,554.14,726,558.78l-.82-.79A10.33,10.33,0,0,0,723,556.7a8.06,8.06,0,0,0-3.4-.78A5.74,5.74,0,0,0,715.9,557a3.13,3.13,0,0,0-1.34,2.5,3.08,3.08,0,0,0,1.29,2.51,8.84,8.84,0,0,0,3.25,1.53c1.3.35,2.7.79,4.2,1.31a38.9,38.9,0,0,1,4.23,1.76,8.23,8.23,0,0,1,3.26,3,8.88,8.88,0,0,1,1.29,4.88,9.7,9.7,0,0,1-3.58,7.57,13.53,13.53,0,0,1-9.3,3.14,18.34,18.34,0,0,1-4.79-.62,15.05,15.05,0,0,1-3.76-1.51,21.09,21.09,0,0,1-2.56-1.76,10.87,10.87,0,0,1-1.59-1.51l-.52-.67,4.64-4.64a8.69,8.69,0,0,0,4,3.12,9.9,9.9,0,0,0,4.62,1.17,6.7,6.7,0,0,0,4.3-1.17,3.82,3.82,0,0,0,1.43-3.12,3,3,0,0,0-1.3-2.49,9.21,9.21,0,0,0-3.24-1.54c-1.3-.36-2.7-.8-4.21-1.32a40.8,40.8,0,0,1-4.22-1.75,8,8,0,0,1-3.26-3,9.17,9.17,0,0,1,2.18-11.88,12.69,12.69,0,0,1,8.67-3,17.1,17.1,0,0,1,4,.47,12.83,12.83,0,0,1,3.16,1.16,16.18,16.18,0,0,1,2.14,1.39,15.28,15.28,0,0,1,1.34,1.13Z"/><path class="cls-1" d="M746.91,536.41a4.29,4.29,0,0,1-3.07,7.36,4.29,4.29,0,1,1,0-8.58A4.19,4.19,0,0,1,746.91,536.41Zm.49,13.79v34.3h-7.16V550.2Z"/><path class="cls-1" d="M782.05,582.44v-2.93l-.46.45a12.78,12.78,0,0,1-1.3,1,15.3,15.3,0,0,1-2.15,1.29,16.68,16.68,0,0,1-2.9,1.05,13.75,13.75,0,0,1-3.56.47,15.09,15.09,0,0,1-11.27-5,17.86,17.86,0,0,1,0-24.32,15.09,15.09,0,0,1,11.27-5,14,14,0,0,1,5.45,1.08,12.82,12.82,0,0,1,3.73,2.17l1.19,1V550.2h7.15v32.17a16.92,16.92,0,0,1-17.13,17.13,20.45,20.45,0,0,1-5.59-.75,17.82,17.82,0,0,1-4.36-1.78,26.45,26.45,0,0,1-3-2.08,10.28,10.28,0,0,1-1.85-1.81l-.59-.73,4.67-4.64c.1.13.25.33.46.57a16.35,16.35,0,0,0,1.34,1.29,14.8,14.8,0,0,0,2.18,1.64,13,13,0,0,0,3,1.29,12.18,12.18,0,0,0,3.77.58,9.44,9.44,0,0,0,7.17-3A10.69,10.69,0,0,0,782.05,582.44ZM765.65,559a11.43,11.43,0,0,0,0,15.22,8.92,8.92,0,0,0,13.52,0,11.49,11.49,0,0,0,0-15.22,8.92,8.92,0,0,0-13.52,0Z"/><path class="cls-1" d="M806.33,550.2v3.56l.46-.46a12.59,12.59,0,0,1,1.32-1,16.54,16.54,0,0,1,2.15-1.29,15.68,15.68,0,0,1,2.89-1.05,13.91,13.91,0,0,1,3.55-.47,13.2,13.2,0,0,1,10.06,4.08q3.86,4.1,3.86,11v20h-7.15v-20a8.51,8.51,0,0,0-2.36-6.14,7.78,7.78,0,0,0-5.84-2.44,8.42,8.42,0,0,0-6.51,2.63q-2.43,2.64-2.43,7.38V584.5h-7.15V550.2Z"/><rect class="cls-1" x="616.34" y="324.5" width="113.02" height="7.15"/><path class="cls-5" d="M716.68,754.64c13.8,28.48,50.34,60.54,97.36,73,40.36,10.68,72.59,11.87,109.25-.79s67.38-43.12,51.36-84.35c-16.09-41.41-76.29-51.94-113-19.16-42.25,37.71-82.83,39.95-113.75,13.53C728.64,720.45,709.08,738.94,716.68,754.64Z"/><path class="cls-6" d="M465.27,372.74C384.63,318,380.91,268,333.48,247.68c-63-27-99.24,51.09-99.34,51.06C186.16,395.08,267,455.64,376,479.6,477.37,501.87,557.83,435.56,465.27,372.74Z"/><rect class="cls-4" x="382.25" y="154" width="5.5" height="22" rx="2.75"/><rect class="cls-4" x="382.25" y="198" width="5.5" height="22" rx="2.75"/><path class="cls-4" d="M360.18,169.49l14.3,8.26a2.75,2.75,0,0,1,1,3.75h0a2.74,2.74,0,0,1-3.75,1l-14.3-8.25a2.75,2.75,0,0,1-1-3.76h0A2.75,2.75,0,0,1,360.18,169.49Z"/><path class="cls-4" d="M398.28,191.49l14.29,8.25a2.75,2.75,0,0,1,1,3.76h0a2.75,2.75,0,0,1-3.76,1l-14.29-8.26a2.74,2.74,0,0,1-1-3.75h0A2.75,2.75,0,0,1,398.28,191.49Z"/><path class="cls-4" d="M413.58,170.5h0a2.75,2.75,0,0,1-1,3.76l-14.29,8.25a2.75,2.75,0,0,1-3.76-1h0a2.74,2.74,0,0,1,1-3.75l14.29-8.26A2.75,2.75,0,0,1,413.58,170.5Z"/><path class="cls-4" d="M375.48,192.49h0a2.75,2.75,0,0,1-1,3.75l-14.3,8.26a2.75,2.75,0,0,1-3.76-1h0a2.75,2.75,0,0,1,1-3.76l14.3-8.25A2.75,2.75,0,0,1,375.48,192.49Z"/><rect class="cls-4" x="1152.25" y="792" width="5.5" height="22" rx="2.75"/><rect class="cls-4" x="1152.25" y="836" width="5.5" height="22" rx="2.75"/><path class="cls-4" d="M1130.18,807.49l14.29,8.26a2.74,2.74,0,0,1,1,3.75h0a2.75,2.75,0,0,1-3.76,1l-14.29-8.25a2.75,2.75,0,0,1-1-3.76h0A2.76,2.76,0,0,1,1130.18,807.49Z"/><path class="cls-4" d="M1168.28,829.49l14.29,8.25a2.75,2.75,0,0,1,1,3.76h0a2.76,2.76,0,0,1-3.76,1l-14.29-8.26a2.74,2.74,0,0,1-1-3.75h0A2.75,2.75,0,0,1,1168.28,829.49Z"/><path class="cls-4" d="M1183.58,808.5h0a2.75,2.75,0,0,1-1,3.76l-14.29,8.25a2.75,2.75,0,0,1-3.76-1h0a2.74,2.74,0,0,1,1-3.75l14.29-8.26A2.76,2.76,0,0,1,1183.58,808.5Z"/><path class="cls-4" d="M1145.48,830.49h0a2.74,2.74,0,0,1-1,3.75l-14.29,8.26a2.76,2.76,0,0,1-3.76-1h0a2.75,2.75,0,0,1,1-3.76l14.29-8.25A2.76,2.76,0,0,1,1145.48,830.49Z"/><rect class="cls-4" x="1141.25" y="451" width="5.5" height="22" rx="2.75"/><rect class="cls-4" x="1141.25" y="495" width="5.5" height="22" rx="2.75"/><rect class="cls-4" x="1155" y="481.25" width="22" height="5.5" rx="2.75"/><rect class="cls-4" x="1111" y="481.25" width="22" height="5.5" rx="2.75"/><rect class="cls-4" x="514.25" y="627" width="5.5" height="22" rx="2.75"/><rect class="cls-4" x="514.25" y="671" width="5.5" height="22" rx="2.75"/><rect class="cls-4" x="528" y="657.25" width="22" height="5.5" rx="2.75"/><rect class="cls-4" x="484" y="657.25" width="22" height="5.5" rx="2.75"/><path class="cls-4" d="M220,536.25a35.73,35.73,0,0,1,33.76,24,2.75,2.75,0,0,1-1.92,3.57h0a2.72,2.72,0,0,1-3.26-1.71,30.26,30.26,0,0,0-57.16,0,2.72,2.72,0,0,1-3.26,1.71h0a2.75,2.75,0,0,1-1.92-3.57A35.73,35.73,0,0,1,220,536.25Z"/><path class="cls-4" d="M188.16,580.22a2.72,2.72,0,0,1,3.26,1.71,30.26,30.26,0,0,0,57.16,0,2.72,2.72,0,0,1,3.26-1.71h0a2.75,2.75,0,0,1,1.92,3.57,35.76,35.76,0,0,1-67.52,0,2.75,2.75,0,0,1,1.92-3.57Z"/><path class="cls-4" d="M1001,250.25a35.73,35.73,0,0,1,33.76,24,2.75,2.75,0,0,1-1.92,3.57h0a2.73,2.73,0,0,1-3.26-1.71,30.26,30.26,0,0,0-57.16,0,2.72,2.72,0,0,1-3.26,1.71h0a2.76,2.76,0,0,1-1.92-3.57A35.73,35.73,0,0,1,1001,250.25Z"/><path class="cls-4" d="M969.16,294.22a2.72,2.72,0,0,1,3.26,1.71,30.26,30.26,0,0,0,57.16,0,2.73,2.73,0,0,1,3.26-1.71h0a2.75,2.75,0,0,1,1.92,3.57,35.76,35.76,0,0,1-67.52,0,2.76,2.76,0,0,1,1.92-3.57Z"/></g></g></svg>