<svg xmlns="http://www.w3.org/2000/svg" xmlns:xlink="http://www.w3.org/1999/xlink" viewBox="0 0 1320 1100"><defs><style>.cls-1{fill:#fff;}.cls-2{fill:url(#Безымянный_градиент_74);}.cls-3{fill:url(#Безымянный_градиент_74-2);}.cls-4{fill:url(#Безымянный_градиент_74-3);}.cls-5{fill:url(#Безымянный_градиент_74-4);}.cls-6{fill:#fe7199;}</style><linearGradient id="Безымянный_градиент_74" x1="288.51" y1="182.19" x2="920.28" y2="813.96" gradientUnits="userSpaceOnUse"><stop offset="0" stop-color="#2961ff"/><stop offset="1" stop-color="#18ffff"/></linearGradient><linearGradient id="Безымянный_градиент_74-2" x1="422.61" y1="844.63" x2="967.91" y2="299.32" xlink:href="#Безымянный_градиент_74"/><linearGradient id="Безымянный_градиент_74-3" x1="126.54" y1="212.84" x2="429.51" y2="387.76" xlink:href="#Безымянный_градиент_74"/><linearGradient id="Безымянный_градиент_74-4" x1="352.73" y1="726.7" x2="551.31" y2="612.05" xlink:href="#Безымянный_градиент_74"/></defs><title>blob3</title><g id="Layer_2" data-name="Layer 2"><g id="Layer_1-2" data-name="Layer 1"><rect class="cls-1" width="1320" height="1100"/><path class="cls-2" d="M955.9,169.92c-67.35-35.62-107.29,14.86-126.44,34.53s-81.84,62.4-156-49.79C585.18,21.05,413.79,24.42,327.07,149c-77.54,111.35-43.92,242.71-2.17,314.25s70.75,157.39,10.93,254.51-20.55,216.93,74.73,254.9C513.61,1013.7,734,1039.47,894.85,834.09c102.48-130.86,141.4-286.53,144.36-410S1023.26,205.55,955.9,169.92Z"/><path class="cls-3" d="M1160.22,552.54c-53.87-162.3-204.53-288.93-486.51-313.81C430.25,217.25,208,355.18,146.14,459.3s25,156.79,226.28,193.5c204.91,37.35,281.06,140.76,287.44,224.8s50,222.06,228.62,133.15S1214.09,714.84,1160.22,552.54Z"/><path class="cls-4" d="M404.25,302.24c-24.84-69.77-82.3-113-132.71-130.12s-72-1.62-74.15,27.11-17.13,41.1-53.25,43.39-71.25,31.95-49.38,70.21c26.94,47.13,66.73,21.36,129.67,55.95,60.79,33.41,104.27,90.72,149.07,81.16C438.92,436,416.28,336,404.25,302.24Z"/><path class="cls-5" d="M459.07,596.77c-84,16.23-145.24,59.61-105.84,130.77.07,0,29.94,57.64,78.17,38.61,36.3-14.33,38.05-50.91,99.31-90C601,631.23,537.14,581.67,459.07,596.77Z"/><path class="cls-6" d="M1120.24,340.89c-27.9-72-103.88-93.39-183.7-93.39-42.66,0-86.39,6.09-124.5,13.84a846.69,846.69,0,0,0-88,22.79c-141.33,45.3-347.84,208-429.4,352.2-14.67,25.94-25.3,51.28-30.77,75.24-22.49,98.32,27.45,131.07,121.59,131.07q20.63,0,44-2c11.83-1,24.06-1.56,36.58-1.56,62.22,0,131.67,13.95,196.18,59.58-.71-4.95-1.28-9.81-1.72-14.52C604.38,846.93,539.07,828.1,466,828.1c-12.23,0-24.84.55-37.49,1.59-15.57,1.29-30.05,1.95-43.05,1.95-51.92,0-85.32-10.23-102.1-31.28-14.92-18.7-17.78-47-8.78-86.35,5.28-23.08,15.88-48.33,31.22-75,31-54,81.53-113.56,146.43-171.84,90.16-80.94,195.58-147.07,275.15-172.59a845.17,845.17,0,0,1,109.28-26.68c31.24-5.42,65.82-9.42,99.9-9.42,92.88,0,151.25,29.06,173.45,86.37,12.21,31.55,6.22,61.32-9.77,92.47,2.44,3.25,4.84,6.53,7.15,9.85C1126.47,412,1134.52,377.74,1120.24,340.89Z"/><path class="cls-1" d="M749.15,596.41a12.76,12.76,0,0,0,18.56,0,13.2,13.2,0,0,0,3.93-9.56V556.78h7.88v30.05a19.77,19.77,0,0,1-6.16,14.64,21.42,21.42,0,0,1-29.86,0,19.79,19.79,0,0,1-6.17-14.62V556.78h7.89v30.05A13.19,13.19,0,0,0,749.15,596.41Z"/><path class="cls-1" d="M797.7,572.52v3.56l.46-.45a11.34,11.34,0,0,1,1.32-1,16.54,16.54,0,0,1,2.15-1.29,14.23,14.23,0,0,1,2.9-1,13.77,13.77,0,0,1,3.54-.47,13.2,13.2,0,0,1,10.06,4.08q3.86,4.08,3.86,11v20h-7.15v-20a8.47,8.47,0,0,0-2.36-6.14,7.79,7.79,0,0,0-5.84-2.45,8.4,8.4,0,0,0-6.51,2.64q-2.43,2.63-2.43,7.38v18.56h-7.15v-34.3Z"/><path class="cls-1" d="M839,558.74a4.47,4.47,0,1,1-3.07-1.22A4.14,4.14,0,0,1,839,558.74Zm.49,13.78v34.3h-7.15v-34.3Z"/><path class="cls-1" d="M866.62,606.82H859.5l-14-34.3H853l10,25,10-25h7.51Z"/><path class="cls-1" d="M918.05,592.17h-26.8a10.34,10.34,0,0,0,3.58,6.28A10.48,10.48,0,0,0,902,601.1a11.85,11.85,0,0,0,5.6-1.36,12.33,12.33,0,0,0,3.68-2.65l1.08-1.33L917,600.4c-.13.19-.35.45-.64.79a20.6,20.6,0,0,1-1.87,1.71,18.4,18.4,0,0,1-7.2,3.84,18.07,18.07,0,0,1-5.29.78,17.09,17.09,0,0,1-12.58-5.36,17.65,17.65,0,0,1-5.28-12.85,17.57,17.57,0,0,1,17.49-17.52,16.41,16.41,0,0,1,16.81,16.82ZM901.62,577.9a9.61,9.61,0,0,0-6.51,2.28,11.15,11.15,0,0,0-3.54,5.92h19.85a9.84,9.84,0,0,0-3.24-5.92A9.63,9.63,0,0,0,901.62,577.9Z"/><path class="cls-1" d="M945.55,578.59a13.78,13.78,0,0,0-3.21-.35,8.42,8.42,0,0,0-6.51,2.64c-1.62,1.75-2.42,4.21-2.42,7.38v18.56h-7.16v-34.3h7.16v3.56l.45-.45a11.34,11.34,0,0,1,1.32-1,17.23,17.23,0,0,1,2.15-1.29,14.46,14.46,0,0,1,2.9-1,13.77,13.77,0,0,1,3.54-.47h1.78Z"/><path class="cls-1" d="M973,576.46l-4.64,4.64-.82-.78a9.21,9.21,0,0,0-2.23-1.29,8.07,8.07,0,0,0-3.4-.79,5.72,5.72,0,0,0-3.65,1.07A3.13,3.13,0,0,0,957,581.8a3.07,3.07,0,0,0,1.29,2.51,8.85,8.85,0,0,0,3.25,1.54c1.3.35,2.7.79,4.2,1.31a36.11,36.11,0,0,1,4.22,1.76,8.07,8.07,0,0,1,3.26,3,8.83,8.83,0,0,1,1.3,4.89,9.76,9.76,0,0,1-3.58,7.57,13.62,13.62,0,0,1-9.3,3.14,18,18,0,0,1-4.8-.63,15.54,15.54,0,0,1-3.75-1.5,21.44,21.44,0,0,1-2.56-1.76,9.47,9.47,0,0,1-1.59-1.52l-.53-.66,4.64-4.64a14.76,14.76,0,0,0,1,1.22,11.85,11.85,0,0,0,2.93,1.9,9.9,9.9,0,0,0,4.62,1.17,6.65,6.65,0,0,0,4.29-1.17,3.81,3.81,0,0,0,1.43-3.12,3.05,3.05,0,0,0-1.29-2.5,9.38,9.38,0,0,0-3.24-1.53c-1.31-.36-2.71-.81-4.21-1.33a37.89,37.89,0,0,1-4.22-1.74,7.93,7.93,0,0,1-3.26-3,9.15,9.15,0,0,1,2.18-11.89,12.7,12.7,0,0,1,8.67-3,17,17,0,0,1,4,.47,12.55,12.55,0,0,1,3.16,1.15,16.33,16.33,0,0,1,2.15,1.4,14.8,14.8,0,0,1,1.34,1.13Z"/><path class="cls-1" d="M1009.82,606.82h-7.15v-3.56c-.09.1-.25.25-.47.46a14.39,14.39,0,0,1-1.33,1,17.34,17.34,0,0,1-2.14,1.29,16,16,0,0,1-2.9,1,14,14,0,0,1-3.52.45,12.65,12.65,0,0,1-8.69-3,9,9,0,0,1-3.46-6.94,10,10,0,0,1,2.67-7.08,12.41,12.41,0,0,1,7.31-3.63l12.53-2.17a6,6,0,0,0-2-4.57,7.29,7.29,0,0,0-5.14-1.85,10.63,10.63,0,0,0-4.94,1.14,8.63,8.63,0,0,0-3.06,2.28l-.94,1.22-4.64-4.64c.14-.18.33-.42.58-.71a17.68,17.68,0,0,1,1.64-1.54,20.71,20.71,0,0,1,2.7-2,15.84,15.84,0,0,1,3.79-1.55,17.57,17.57,0,0,1,4.87-.68,14.58,14.58,0,0,1,10.29,3.71,12,12,0,0,1,4,9.16Zm-16.43-5.72a8.94,8.94,0,0,0,6.82-2.6c1.64-1.73,2.46-4.21,2.46-7.42v-.69l-11.1,1.78a5.52,5.52,0,0,0-3.1,1.57,4.22,4.22,0,0,0-1.19,3.07,3.74,3.74,0,0,0,1.66,3A7.07,7.07,0,0,0,993.39,601.1Z"/><path class="cls-1" d="M1027.65,556.78v50h-7.11v-50Z"/><path class="cls-1" d="M732.35,683.66l20.72-50h7.85l20.73,50h-8.2l-5.37-13.22H745.92l-5.38,13.22ZM757,642.55l-8.23,20.73h16.44Z"/><path class="cls-1" d="M806.67,648.63a15.75,15.75,0,0,1,11.79,5.21,18.52,18.52,0,0,1,0,25.3,15.82,15.82,0,0,1-11.78,5.22,15.65,15.65,0,0,1-3.75-.46,13.91,13.91,0,0,1-3.12-1.13,18.47,18.47,0,0,1-2.29-1.4,11.83,11.83,0,0,1-1.41-1.13l-.52-.52v3.94h-7.13v-50h7.13V653.3c.32-.32.78-.76,1.39-1.29a17.21,17.21,0,0,1,3.8-2.09A14.38,14.38,0,0,1,806.67,648.63Zm-7.94,26a9.44,9.44,0,0,0,14.43,0,12,12,0,0,0,0-16.16,9.44,9.44,0,0,0-14.43,0,11.94,11.94,0,0,0,0,16.16Z"/><path class="cls-1" d="M853.11,653.3l-4.64,4.64c-.18-.18-.46-.45-.82-.78a9.21,9.21,0,0,0-2.23-1.29,7.93,7.93,0,0,0-3.4-.79,5.72,5.72,0,0,0-3.65,1.07,3,3,0,0,0,0,5,8.88,8.88,0,0,0,3.24,1.54c1.31.35,2.71.78,4.21,1.31a36.11,36.11,0,0,1,4.22,1.76,8.13,8.13,0,0,1,3.26,3,8.91,8.91,0,0,1,1.29,4.89,9.75,9.75,0,0,1-3.57,7.57,13.62,13.62,0,0,1-9.3,3.14,17.94,17.94,0,0,1-4.8-.63,15.54,15.54,0,0,1-3.75-1.5,22.46,22.46,0,0,1-2.57-1.76A10.18,10.18,0,0,1,829,679l-.53-.66,4.64-4.64a14.77,14.77,0,0,0,1,1.21,12,12,0,0,0,2.93,1.91,10,10,0,0,0,4.63,1.17,6.65,6.65,0,0,0,4.29-1.17,3.84,3.84,0,0,0,1.43-3.12,3,3,0,0,0-1.29-2.5,9.53,9.53,0,0,0-3.25-1.54q-2-.54-4.2-1.32a39.91,39.91,0,0,1-4.22-1.75,7.93,7.93,0,0,1-3.26-3,8.89,8.89,0,0,1-1.29-4.9,9.06,9.06,0,0,1,3.47-7,12.7,12.7,0,0,1,8.67-3,16.51,16.51,0,0,1,4,.47,12.31,12.31,0,0,1,3.16,1.15,18.2,18.2,0,0,1,2.15,1.39,16.35,16.35,0,0,1,1.34,1.14Z"/><path class="cls-1" d="M866.65,645.07v-7.16h6.42v11.45h7.16v6.42h-7.16v17.8a4.25,4.25,0,0,0,1.22,3.13,4.16,4.16,0,0,0,3.07,1.23,8.63,8.63,0,0,0,1.7-.18,6.57,6.57,0,0,0,1.37-.38l.53-.14v6.42a16.33,16.33,0,0,1-5,.7q-10,0-10-10.71V655.78H859.5v-6.42h3.59C865.47,649.36,866.65,647.93,866.65,645.07Z"/><path class="cls-1" d="M908.8,655.43a13.66,13.66,0,0,0-3.21-.35,8.41,8.41,0,0,0-6.5,2.63q-2.43,2.64-2.43,7.39v18.56h-7.15v-34.3h7.15v3.56l.45-.46a14.77,14.77,0,0,1,1.33-1,19.11,19.11,0,0,1,2.15-1.29,15,15,0,0,1,2.89-1,13.46,13.46,0,0,1,3.54-.47h1.78Z"/><path class="cls-1" d="M942,683.66h-7.15V680.1l-.47.45a14,14,0,0,1-1.33,1,15.19,15.19,0,0,1-2.14,1.29,14.6,14.6,0,0,1-2.9,1,14.06,14.06,0,0,1-3.52.46,12.65,12.65,0,0,1-8.69-3,9,9,0,0,1-3.46-6.94,10,10,0,0,1,2.67-7.09,12.45,12.45,0,0,1,7.31-3.62l12.53-2.17a6,6,0,0,0-2-4.57,7.29,7.29,0,0,0-5.14-1.85,10.75,10.75,0,0,0-4.94,1.13,8.64,8.64,0,0,0-3.06,2.29l-.94,1.22-4.64-4.64c.14-.18.33-.42.58-.72a16.68,16.68,0,0,1,1.64-1.53,20.71,20.71,0,0,1,2.7-2,15.84,15.84,0,0,1,3.79-1.55,17.21,17.21,0,0,1,4.87-.68A14.55,14.55,0,0,1,938,652.34a12,12,0,0,1,4,9.16Zm-16.43-5.72a8.94,8.94,0,0,0,6.82-2.6q2.46-2.61,2.46-7.42v-.69L923.77,669a5.64,5.64,0,0,0-3.1,1.57,4.26,4.26,0,0,0-1.19,3.08,3.73,3.73,0,0,0,1.66,3A7,7,0,0,0,925.59,677.94Z"/><path class="cls-1" d="M955.2,679a17.88,17.88,0,0,1,12.54-30.41,18.08,18.08,0,0,1,12.42,5.16l1.5,1.64L977,660.07a12.33,12.33,0,0,0-1.06-1.38,14,14,0,0,0-3.11-2.21,10,10,0,0,0-5.11-1.4,10.16,10.16,0,0,0-7.56,3.32,11.9,11.9,0,0,0,0,16.22,10.25,10.25,0,0,0,12.67,2,12,12,0,0,0,3.44-2.65l1.08-1.32,4.64,4.64c-.14.18-.35.45-.63.78a16.41,16.41,0,0,1-1.81,1.71,21.21,21.21,0,0,1-2.93,2.13,18.94,18.94,0,0,1-4,1.71,16.12,16.12,0,0,1-4.92.79A17.16,17.16,0,0,1,955.2,679Z"/><path class="cls-1" d="M993.42,645.07v-7.16h6.42v11.45H1007v6.42h-7.16v17.8a4.25,4.25,0,0,0,1.22,3.13,4.16,4.16,0,0,0,3.07,1.23,8.63,8.63,0,0,0,1.7-.18,6.57,6.57,0,0,0,1.37-.38l.53-.14v6.42a16.38,16.38,0,0,1-5,.7q-10,0-10-10.71V655.78h-6.45v-6.42h3.59Q993.42,649.36,993.42,645.07Z"/><path class="cls-1" d="M738.07,710.46h17.52a24.54,24.54,0,0,1,17.9,7.39,24.55,24.55,0,0,1,0,35.25,24.55,24.55,0,0,1-17.9,7.4H738.07Zm17.52,7.15h-9.67v35.73h9.67A16.67,16.67,0,0,0,768,748.16a18.33,18.33,0,0,0,0-25.37A16.71,16.71,0,0,0,755.59,717.61Z"/><path class="cls-1" d="M821.64,745.84h-26.8a10.25,10.25,0,0,0,3.58,6.28,10.48,10.48,0,0,0,7.17,2.65,11.85,11.85,0,0,0,5.6-1.36,12.16,12.16,0,0,0,3.68-2.65l1.08-1.32,4.64,4.64c-.14.18-.35.44-.64.78a19.1,19.1,0,0,1-1.87,1.71,21.28,21.28,0,0,1-3,2.13,20.08,20.08,0,0,1-4.17,1.71,18,18,0,0,1-5.28.78A17.06,17.06,0,0,1,793,755.84,17.64,17.64,0,0,1,787.72,743a17.58,17.58,0,0,1,17.5-17.52A16.41,16.41,0,0,1,822,742.28ZM805.2,731.57a9.57,9.57,0,0,0-6.5,2.28,11.27,11.27,0,0,0-3.55,5.92H815a9.83,9.83,0,0,0-3.25-5.92A9.62,9.62,0,0,0,805.2,731.57Z"/><path class="cls-1" d="M851.65,730.14,847,734.78l-.82-.79A10.33,10.33,0,0,0,844,732.7a8,8,0,0,0-3.4-.78,5.69,5.69,0,0,0-3.64,1.06,3.12,3.12,0,0,0-1.35,2.5,3.08,3.08,0,0,0,1.29,2.51,9.08,9.08,0,0,0,3.25,1.53c1.3.35,2.7.79,4.2,1.31a38.9,38.9,0,0,1,4.23,1.76,8.23,8.23,0,0,1,3.26,3,8.85,8.85,0,0,1,1.29,4.88,9.7,9.7,0,0,1-3.58,7.57,13.53,13.53,0,0,1-9.3,3.14,18.34,18.34,0,0,1-4.79-.62,15.05,15.05,0,0,1-3.76-1.51,21.09,21.09,0,0,1-2.56-1.76,10.87,10.87,0,0,1-1.59-1.51l-.52-.67,4.64-4.64a8.69,8.69,0,0,0,4,3.12,9.9,9.9,0,0,0,4.62,1.17,6.7,6.7,0,0,0,4.3-1.17,3.82,3.82,0,0,0,1.43-3.12,3,3,0,0,0-1.3-2.49,9.21,9.21,0,0,0-3.24-1.54c-1.3-.36-2.7-.8-4.21-1.32a40.8,40.8,0,0,1-4.22-1.75,8,8,0,0,1-3.26-3,9.17,9.17,0,0,1,2.18-11.88,12.72,12.72,0,0,1,8.67-3,17.1,17.1,0,0,1,4,.47,13,13,0,0,1,3.15,1.15,17.42,17.42,0,0,1,2.15,1.4,17,17,0,0,1,1.34,1.13Z"/><path class="cls-1" d="M867.91,712.41a4.29,4.29,0,0,1-3.07,7.36,4.29,4.29,0,1,1,0-8.58A4.19,4.19,0,0,1,867.91,712.41Zm.49,13.79v34.3h-7.16V726.2Z"/><path class="cls-1" d="M903.05,758.44v-2.93l-.46.45a12.78,12.78,0,0,1-1.3,1,15.3,15.3,0,0,1-2.15,1.29,16.68,16.68,0,0,1-2.9,1.05,13.75,13.75,0,0,1-3.56.47,15.09,15.09,0,0,1-11.27-5,17.86,17.86,0,0,1,0-24.32,15.09,15.09,0,0,1,11.27-5,14,14,0,0,1,5.45,1.08,13.05,13.05,0,0,1,3.73,2.17l1.19,1V726.2h7.15v32.17a16.91,16.91,0,0,1-17.13,17.13,20.45,20.45,0,0,1-5.59-.75,18,18,0,0,1-4.36-1.78,26.45,26.45,0,0,1-3-2.08,10.28,10.28,0,0,1-1.85-1.81l-.59-.73,4.67-4.65c.1.14.25.34.46.58a16.35,16.35,0,0,0,1.34,1.29,14.8,14.8,0,0,0,2.18,1.64,13,13,0,0,0,3,1.29,12.18,12.18,0,0,0,3.77.58,9.46,9.46,0,0,0,7.17-3A10.69,10.69,0,0,0,903.05,758.44ZM886.65,735a11.43,11.43,0,0,0,0,15.22,8.92,8.92,0,0,0,13.52,0,11.49,11.49,0,0,0,0-15.22,8.92,8.92,0,0,0-13.52,0Z"/><path class="cls-1" d="M927.33,726.2v3.56l.46-.46a12.59,12.59,0,0,1,1.32-1,16.54,16.54,0,0,1,2.15-1.29,15.68,15.68,0,0,1,2.89-1.05,13.91,13.91,0,0,1,3.55-.47,13.2,13.2,0,0,1,10.06,4.08q3.86,4.1,3.86,11v20h-7.15v-20a8.51,8.51,0,0,0-2.36-6.14,7.78,7.78,0,0,0-5.84-2.44,8.42,8.42,0,0,0-6.51,2.63q-2.43,2.64-2.43,7.38V760.5h-7.15V726.2Z"/><rect class="cls-1" x="737.33" y="500.5" width="113.02" height="7.15"/><rect class="cls-6" x="787.05" y="924" width="5.5" height="22" rx="2.75"/><rect class="cls-6" x="787.05" y="880" width="5.5" height="22" rx="2.75"/><path class="cls-6" d="M814.62,930.51l-14.29-8.26a2.74,2.74,0,0,1-1-3.75h0a2.75,2.75,0,0,1,3.76-1l14.29,8.25a2.75,2.75,0,0,1,1,3.76h0A2.76,2.76,0,0,1,814.62,930.51Z"/><path class="cls-6" d="M776.52,908.51l-14.29-8.25a2.75,2.75,0,0,1-1-3.76h0a2.76,2.76,0,0,1,3.76-1l14.29,8.26a2.74,2.74,0,0,1,1,3.75h0A2.75,2.75,0,0,1,776.52,908.51Z"/><path class="cls-6" d="M761.22,929.5h0a2.75,2.75,0,0,1,1-3.76l14.29-8.25a2.75,2.75,0,0,1,3.76,1h0a2.75,2.75,0,0,1-1,3.75L765,930.51A2.76,2.76,0,0,1,761.22,929.5Z"/><path class="cls-6" d="M799.32,907.51h0a2.74,2.74,0,0,1,1-3.75l14.29-8.26a2.76,2.76,0,0,1,3.76,1h0a2.75,2.75,0,0,1-1,3.76l-14.29,8.25A2.76,2.76,0,0,1,799.32,907.51Z"/><rect class="cls-6" x="426.25" y="198" width="5.5" height="22" rx="2.75"/><rect class="cls-6" x="426.25" y="154" width="5.5" height="22" rx="2.75"/><rect class="cls-6" x="396" y="184.25" width="22" height="5.5" rx="2.75"/><rect class="cls-6" x="440" y="184.25" width="22" height="5.5" rx="2.75"/><path class="cls-6" d="M231,519.75a35.73,35.73,0,0,1-33.76-24,2.75,2.75,0,0,1,1.92-3.57h0a2.73,2.73,0,0,1,3.26,1.71,30.26,30.26,0,0,0,57.16,0,2.73,2.73,0,0,1,3.26-1.71h0a2.75,2.75,0,0,1,1.92,3.57A35.73,35.73,0,0,1,231,519.75Z"/><path class="cls-6" d="M262.84,475.78a2.73,2.73,0,0,1-3.26-1.71,30.26,30.26,0,0,0-57.16,0,2.73,2.73,0,0,1-3.26,1.71h0a2.75,2.75,0,0,1-1.92-3.57,35.76,35.76,0,0,1,67.52,0,2.75,2.75,0,0,1-1.92,3.57Z"/><rect class="cls-6" x="1097.25" y="176" width="5.5" height="22" rx="2.75"/><rect class="cls-6" x="1097.25" y="132" width="5.5" height="22" rx="2.75"/><path class="cls-6" d="M1124.82,182.51l-14.29-8.26a2.74,2.74,0,0,1-1-3.75h0a2.75,2.75,0,0,1,3.76-1l14.29,8.25a2.75,2.75,0,0,1,1,3.76h0A2.76,2.76,0,0,1,1124.82,182.51Z"/><path class="cls-6" d="M1086.72,160.51l-14.29-8.25a2.75,2.75,0,0,1-1-3.76h0a2.76,2.76,0,0,1,3.76-1l14.29,8.26a2.74,2.74,0,0,1,1,3.75h0A2.75,2.75,0,0,1,1086.72,160.51Z"/><path class="cls-6" d="M1071.42,181.5h0a2.75,2.75,0,0,1,1-3.76l14.3-8.25a2.74,2.74,0,0,1,3.75,1h0a2.75,2.75,0,0,1-1,3.75l-14.3,8.26A2.76,2.76,0,0,1,1071.42,181.5Z"/><path class="cls-6" d="M1109.52,159.51h0a2.74,2.74,0,0,1,1-3.75l14.29-8.26a2.76,2.76,0,0,1,3.76,1h0a2.75,2.75,0,0,1-1,3.76l-14.29,8.25A2.76,2.76,0,0,1,1109.52,159.51Z"/><rect class="cls-6" x="1097.25" y="561" width="5.5" height="22" rx="2.75"/><rect class="cls-6" x="1097.25" y="517" width="5.5" height="22" rx="2.75"/><rect class="cls-6" x="1067" y="547.25" width="22" height="5.5" rx="2.75"/><rect class="cls-6" x="1111" y="547.25" width="22" height="5.5" rx="2.75"/><path class="cls-6" d="M946,365.75a35.73,35.73,0,0,1-33.76-24,2.75,2.75,0,0,1,1.92-3.57h0a2.73,2.73,0,0,1,3.26,1.71,30.26,30.26,0,0,0,57.16,0,2.72,2.72,0,0,1,3.26-1.71h0a2.75,2.75,0,0,1,1.92,3.57A35.73,35.73,0,0,1,946,365.75Z"/><path class="cls-6" d="M977.84,321.78a2.72,2.72,0,0,1-3.26-1.71,30.26,30.26,0,0,0-57.16,0,2.73,2.73,0,0,1-3.26,1.71h0a2.75,2.75,0,0,1-1.92-3.57,35.76,35.76,0,0,1,67.52,0,2.75,2.75,0,0,1-1.92,3.57Z"/></g></g></svg>