<svg xmlns="http://www.w3.org/2000/svg" xmlns:xlink="http://www.w3.org/1999/xlink" viewBox="0 0 1320 1100"><defs><style>.cls-1{fill:#fff;}.cls-2{fill:url(#Безымянный_градиент_2);}.cls-3{fill:url(#Безымянный_градиент_76);}.cls-4{fill:url(#Безымянный_градиент_2-2);}.cls-5{fill:#fe7199;}.cls-6{fill:url(#Безымянный_градиент_2-3);}</style><linearGradient id="Безымянный_градиент_2" x1="165" y1="330" x2="363" y2="330" gradientUnits="userSpaceOnUse"><stop offset="0" stop-color="#18ffff"/><stop offset="1" stop-color="#2961ff"/></linearGradient><linearGradient id="Безымянный_градиент_76" x1="235.87" y1="828.48" x2="982.43" y2="397.45" gradientUnits="userSpaceOnUse"><stop offset="0" stop-color="#2961ff"/><stop offset="0.2" stop-color="#2964ff"/><stop offset="0.36" stop-color="#286eff"/><stop offset="0.5" stop-color="#267fff"/><stop offset="0.64" stop-color="#2397ff"/><stop offset="0.77" stop-color="#20b6ff"/><stop offset="0.9" stop-color="#1cdbff"/><stop offset="1" stop-color="#18ffff"/></linearGradient><linearGradient id="Безымянный_градиент_2-2" x1="384.73" y1="180.87" x2="1024.64" y2="820.79" xlink:href="#Безымянный_градиент_2"/><linearGradient id="Безымянный_градиент_2-3" x1="888.47" y1="711.58" x2="1029.38" y2="852.49" xlink:href="#Безымянный_градиент_2"/></defs><title>blob1</title><g id="Layer_2" data-name="Layer 2"><g id="Layer_1-2" data-name="Layer 1"><rect class="cls-1" width="1320" height="1100"/><path class="cls-2" d="M340.56,307.86c-20.63-36.25-42.22-60-76.52-77s-76.85-17.23-94.38,23.44,16.94,91,65.28,93.85c55.59,3.23,85.37,30.45,88.51,71.17,1.95,25.32,28.42,26.08,34.05,9.54C367.71,398.81,364.6,350.09,340.56,307.86Z"/><path class="cls-3" d="M777.67,100.17C548.32-149.69,299.19,502.66,235.12,713.37s206.31,244.82,388,282.43c290.35,60.1,423.17-56.29,445.79-196.51S1007,350,777.67,100.17Z"/><path class="cls-4" d="M926,410.36c-121.82,22.48-205-99.9-261.08-175.24-44.11-59.25-229.36-156.84-344.37,18.19C216.32,411.94,259.34,648.16,423.41,767.83S837.74,876.4,993,802.35c98.26-46.86,222.24-133.94,237.58-257.35C1247.43,409.41,1113,375.87,926,410.36Z"/><path class="cls-5" d="M947.89,187.26c-4.9-.17-9.9-.26-15-.26-80.89,0-182.71,21.52-255.46,46.82-3.59,1.25-7.17,2.5-10.72,3.78q3.38,4.52,6.87,9.24c2.48-.9,5-1.76,7.48-2.64C761.82,216.13,860.66,198,932.93,198c5,0,9.86.09,14.57.24,34.14,1.21,59.64,13.11,73.76,34.43,17,25.54,16.9,64.22-.13,108.92-7.68,20.18-14.15,39.34-19.56,58.35-21.76,76.4-26.75,150.57-28,280-.26,29.73-.07,57,.15,83.43.14,16.61.27,32.45.25,47.5-.09,92.06-5.28,155.51-45.26,196.48C897.67,1039.17,861.17,1056,823.2,1056c-41.83,0-84.44-19.87-126.7-59C603.35,910.58,487.61,850,370.59,826.3c-89.78-18.17-160.38-35.38-184.67-77.09-13.2-22.68-13.2-53.37.07-93.83,12.34-37.75,36.28-90,82.48-147.11-.77-5-1.41-9.95-2-14.92-46.42,55.35-75.07,110-91,158.6C132.77,782.49,224.86,808,368.39,837.08,483.85,860.44,596.44,919.18,689,1005c47.21,43.78,92.84,62,134.18,62,43.58,0,82.41-20.19,113.43-52,43.54-44.58,48.44-112.29,48.38-209,0-37.53-.84-79.44-.4-126,1.25-134.11,6.69-206.25,28.6-281,5.13-17.43,11.13-35,18.19-53.53C1066.87,252.47,1030.86,190.19,947.89,187.26Z"/><path class="cls-1" d="M408.15,420.41a12.76,12.76,0,0,0,18.56,0,13.2,13.2,0,0,0,3.93-9.56V380.78h7.88v30.05a19.77,19.77,0,0,1-6.16,14.64,21.42,21.42,0,0,1-29.86,0,19.78,19.78,0,0,1-6.16-14.62V380.78h7.88v30.05A13.19,13.19,0,0,0,408.15,420.41Z"/><path class="cls-1" d="M456.7,396.52v3.56l.46-.45a11.34,11.34,0,0,1,1.32-1,16.54,16.54,0,0,1,2.15-1.29,14.23,14.23,0,0,1,2.9-1.05,13.77,13.77,0,0,1,3.54-.47,13.2,13.2,0,0,1,10.06,4.08q3.86,4.08,3.86,11v20h-7.15v-20a8.47,8.47,0,0,0-2.36-6.14,7.79,7.79,0,0,0-5.84-2.45,8.4,8.4,0,0,0-6.51,2.64q-2.43,2.63-2.43,7.38v18.56h-7.15v-34.3Z"/><path class="cls-1" d="M498,382.74a4.47,4.47,0,1,1-3.07-1.22A4.14,4.14,0,0,1,498,382.74Zm.49,13.78v34.3h-7.15v-34.3Z"/><path class="cls-1" d="M525.62,430.82H518.5l-14-34.3H512l10,25,10-25h7.51Z"/><path class="cls-1" d="M577.05,416.17h-26.8a10.34,10.34,0,0,0,3.58,6.28A10.48,10.48,0,0,0,561,425.1a11.85,11.85,0,0,0,5.6-1.36,12.33,12.33,0,0,0,3.68-2.65l1.08-1.33L576,424.4c-.13.19-.35.45-.64.79a20.6,20.6,0,0,1-1.87,1.71,18.4,18.4,0,0,1-7.2,3.84,18.07,18.07,0,0,1-5.29.78,17.09,17.09,0,0,1-12.58-5.36,17.65,17.65,0,0,1-5.28-12.85,17.57,17.57,0,0,1,17.5-17.52,16.41,16.41,0,0,1,16.8,16.82ZM560.62,401.9a9.61,9.61,0,0,0-6.51,2.28,11.15,11.15,0,0,0-3.54,5.92h19.85a9.84,9.84,0,0,0-3.24-5.92A9.63,9.63,0,0,0,560.62,401.9Z"/><path class="cls-1" d="M604.55,402.59a13.66,13.66,0,0,0-3.21-.35,8.42,8.42,0,0,0-6.51,2.64c-1.62,1.75-2.42,4.21-2.42,7.38v18.56h-7.16v-34.3h7.16v3.56l.45-.45a10.85,10.85,0,0,1,1.33-1,16.42,16.42,0,0,1,2.14-1.29,14.46,14.46,0,0,1,2.9-1.05,13.77,13.77,0,0,1,3.54-.47h1.78Z"/><path class="cls-1" d="M632.05,400.46l-4.65,4.64-.81-.78a9.55,9.55,0,0,0-2.24-1.29,8.07,8.07,0,0,0-3.4-.79,5.72,5.72,0,0,0-3.65,1.07A3.13,3.13,0,0,0,616,405.8a3.07,3.07,0,0,0,1.29,2.51,8.88,8.88,0,0,0,3.24,1.54c1.31.35,2.71.79,4.21,1.31a36.11,36.11,0,0,1,4.22,1.76,8.07,8.07,0,0,1,3.26,3,8.83,8.83,0,0,1,1.3,4.89,9.76,9.76,0,0,1-3.58,7.57,13.62,13.62,0,0,1-9.3,3.14,18,18,0,0,1-4.8-.63,15.54,15.54,0,0,1-3.75-1.5,21.44,21.44,0,0,1-2.56-1.76,9.47,9.47,0,0,1-1.59-1.52l-.53-.66,4.65-4.64a12.65,12.65,0,0,0,1,1.22,11.85,11.85,0,0,0,2.93,1.9,9.9,9.9,0,0,0,4.62,1.17,6.65,6.65,0,0,0,4.29-1.17,3.81,3.81,0,0,0,1.43-3.12,3.05,3.05,0,0,0-1.29-2.5,9.38,9.38,0,0,0-3.24-1.53c-1.31-.36-2.71-.81-4.21-1.33a37.89,37.89,0,0,1-4.22-1.74,8,8,0,0,1-3.26-3,9.18,9.18,0,0,1,2.18-11.89,12.7,12.7,0,0,1,8.67-3,17,17,0,0,1,4,.47,12.55,12.55,0,0,1,3.16,1.15,16.33,16.33,0,0,1,2.15,1.4,16.67,16.67,0,0,1,1.34,1.13Z"/><path class="cls-1" d="M668.82,430.82h-7.15v-3.56c-.09.1-.25.25-.47.46a14.39,14.39,0,0,1-1.33,1,17.34,17.34,0,0,1-2.14,1.29,16,16,0,0,1-2.9,1,14,14,0,0,1-3.52.45,12.65,12.65,0,0,1-8.69-3,9,9,0,0,1-3.46-6.94,10,10,0,0,1,2.67-7.08,12.41,12.41,0,0,1,7.31-3.63l12.53-2.16a6,6,0,0,0-2-4.58,7.29,7.29,0,0,0-5.14-1.85,10.63,10.63,0,0,0-4.94,1.14,8.49,8.49,0,0,0-3.05,2.28l-.95,1.22-4.64-4.64c.14-.18.33-.42.58-.71a17.68,17.68,0,0,1,1.64-1.54,20.71,20.71,0,0,1,2.7-2,15.84,15.84,0,0,1,3.79-1.55,17.57,17.57,0,0,1,4.87-.68,14.56,14.56,0,0,1,10.29,3.71,12,12,0,0,1,4,9.17Zm-16.43-5.72a8.94,8.94,0,0,0,6.82-2.6c1.64-1.73,2.46-4.21,2.46-7.42v-.69l-11.1,1.78a5.55,5.55,0,0,0-3.1,1.57,4.22,4.22,0,0,0-1.19,3.07,3.74,3.74,0,0,0,1.66,3A7.07,7.07,0,0,0,652.39,425.1Z"/><path class="cls-1" d="M686.65,380.78v50h-7.11v-50Z"/><path class="cls-1" d="M391.35,507.66l20.72-50h7.85l20.73,50h-8.2l-5.37-13.22H404.92l-5.37,13.22ZM416,466.55l-8.24,20.73h16.44Z"/><path class="cls-1" d="M465.67,472.63a15.75,15.75,0,0,1,11.79,5.21,18.52,18.52,0,0,1,0,25.3,15.82,15.82,0,0,1-11.78,5.22,15.65,15.65,0,0,1-3.75-.46,13.91,13.91,0,0,1-3.12-1.13,18.47,18.47,0,0,1-2.29-1.4,11.83,11.83,0,0,1-1.41-1.13l-.52-.52v3.94h-7.12v-50h7.12V477.3c.32-.32.78-.76,1.39-1.29a17.21,17.21,0,0,1,3.8-2.09A14.38,14.38,0,0,1,465.67,472.63Zm-7.94,26a9.44,9.44,0,0,0,14.43,0,12,12,0,0,0,0-16.16,9.44,9.44,0,0,0-14.43,0,11.94,11.94,0,0,0,0,16.16Z"/><path class="cls-1" d="M512.11,477.3l-4.64,4.64c-.18-.18-.46-.45-.82-.78a9.21,9.21,0,0,0-2.23-1.29,7.93,7.93,0,0,0-3.4-.79,5.72,5.72,0,0,0-3.65,1.07,3,3,0,0,0-.05,5,8.88,8.88,0,0,0,3.24,1.54c1.31.35,2.71.78,4.21,1.31a36.11,36.11,0,0,1,4.22,1.76,8.13,8.13,0,0,1,3.26,3,8.91,8.91,0,0,1,1.29,4.89,9.75,9.75,0,0,1-3.57,7.57,13.62,13.62,0,0,1-9.3,3.14,17.94,17.94,0,0,1-4.8-.63,15.54,15.54,0,0,1-3.75-1.5,22.46,22.46,0,0,1-2.57-1.76A10.18,10.18,0,0,1,488,503l-.53-.66,4.64-4.64c.24.32.58.73,1,1.22a12.59,12.59,0,0,0,2.93,1.9,10,10,0,0,0,4.63,1.17,6.65,6.65,0,0,0,4.29-1.17,3.84,3.84,0,0,0,1.43-3.12,3,3,0,0,0-1.29-2.5,9.53,9.53,0,0,0-3.25-1.54q-2-.54-4.2-1.32a39.91,39.91,0,0,1-4.22-1.75,7.93,7.93,0,0,1-3.26-3,8.89,8.89,0,0,1-1.29-4.9,9.08,9.08,0,0,1,3.46-7,12.74,12.74,0,0,1,8.68-3,16.51,16.51,0,0,1,4,.47,12.31,12.31,0,0,1,3.16,1.15,18.2,18.2,0,0,1,2.15,1.39,16.35,16.35,0,0,1,1.34,1.14Z"/><path class="cls-1" d="M525.65,469.07v-7.16h6.42v11.45h7.16v6.42h-7.16v17.8a4.25,4.25,0,0,0,1.22,3.13,4.16,4.16,0,0,0,3.07,1.23,8.63,8.63,0,0,0,1.7-.18,6.57,6.57,0,0,0,1.37-.38l.53-.14v6.42a16.38,16.38,0,0,1-5,.7q-10,0-10-10.71V479.78H518.5v-6.42h3.59C524.47,473.36,525.65,471.93,525.65,469.07Z"/><path class="cls-1" d="M567.8,479.43a13.66,13.66,0,0,0-3.21-.35,8.41,8.41,0,0,0-6.5,2.63q-2.43,2.64-2.43,7.39v18.56h-7.15v-34.3h7.15v3.56l.45-.46a13.08,13.08,0,0,1,1.33-1,19.11,19.11,0,0,1,2.15-1.29,15,15,0,0,1,2.89-1,13.46,13.46,0,0,1,3.54-.47h1.78Z"/><path class="cls-1" d="M601,507.66h-7.15V504.1l-.47.45a14,14,0,0,1-1.33,1,15.19,15.19,0,0,1-2.14,1.29,14.6,14.6,0,0,1-2.9,1,14.06,14.06,0,0,1-3.52.46,12.7,12.7,0,0,1-8.69-3,9,9,0,0,1-3.46-6.94,10,10,0,0,1,2.67-7.09,12.45,12.45,0,0,1,7.31-3.62l12.53-2.17a6,6,0,0,0-2-4.57,7.29,7.29,0,0,0-5.14-1.85,10.75,10.75,0,0,0-4.94,1.13,8.49,8.49,0,0,0-3,2.29l-1,1.22-4.64-4.64c.14-.18.33-.42.58-.72a16.68,16.68,0,0,1,1.64-1.53,20.71,20.71,0,0,1,2.7-2,15.84,15.84,0,0,1,3.79-1.55,17.21,17.21,0,0,1,4.87-.68A14.53,14.53,0,0,1,597,476.34a12,12,0,0,1,4,9.16Zm-16.43-5.72a8.94,8.94,0,0,0,6.82-2.6q2.46-2.61,2.46-7.42v-.69L582.77,493a5.64,5.64,0,0,0-3.1,1.57,4.26,4.26,0,0,0-1.19,3.08,3.73,3.73,0,0,0,1.66,3A7,7,0,0,0,584.59,501.94Z"/><path class="cls-1" d="M614.2,503a17.87,17.87,0,0,1,12.54-30.41,18.08,18.08,0,0,1,12.42,5.16l1.5,1.64L636,484.07a11.22,11.22,0,0,0-1.06-1.38,14,14,0,0,0-3.11-2.21,10,10,0,0,0-5.11-1.4,10.16,10.16,0,0,0-7.56,3.32,11.9,11.9,0,0,0,0,16.22,10.27,10.27,0,0,0,12.67,2,12.23,12.23,0,0,0,3.44-2.66l1.08-1.32,4.64,4.64c-.14.18-.35.45-.63.78a16.41,16.41,0,0,1-1.81,1.71,21.21,21.21,0,0,1-2.93,2.13,18.94,18.94,0,0,1-4,1.71,16.12,16.12,0,0,1-4.92.79A17.16,17.16,0,0,1,614.2,503Z"/><path class="cls-1" d="M652.42,469.07v-7.16h6.42v11.45H666v6.42h-7.16v17.8a4.22,4.22,0,0,0,1.23,3.13,4.12,4.12,0,0,0,3.06,1.23,8.63,8.63,0,0,0,1.7-.18,6.88,6.88,0,0,0,1.38-.38l.52-.14v6.42a16.38,16.38,0,0,1-5,.7q-10,0-10-10.71V479.78h-6.45v-6.42h3.59Q652.42,473.36,652.42,469.07Z"/><path class="cls-1" d="M397.07,534.46h17.51a24.48,24.48,0,0,1,17.9,7.4,24.52,24.52,0,0,1,0,35.24,24.52,24.52,0,0,1-17.9,7.4H397.07Zm17.51,7.15h-9.66v35.73h9.66A16.68,16.68,0,0,0,427,572.16a18.33,18.33,0,0,0,0-25.37A16.72,16.72,0,0,0,414.58,541.61Z"/><path class="cls-1" d="M480.64,569.84h-26.8a10.25,10.25,0,0,0,3.58,6.28,10.48,10.48,0,0,0,7.17,2.65,11.85,11.85,0,0,0,5.6-1.36,12.16,12.16,0,0,0,3.68-2.65l1.08-1.32,4.64,4.64c-.14.18-.35.44-.64.78a19.1,19.1,0,0,1-1.87,1.71,21.28,21.28,0,0,1-3,2.13,20.08,20.08,0,0,1-4.17,1.71,18,18,0,0,1-5.28.78A17.06,17.06,0,0,1,452,579.84,17.64,17.64,0,0,1,446.72,567a17.58,17.58,0,0,1,17.5-17.52A16.39,16.39,0,0,1,481,566.28ZM464.2,555.57a9.57,9.57,0,0,0-6.5,2.28,11.27,11.27,0,0,0-3.55,5.92H474a9.83,9.83,0,0,0-3.25-5.92A9.62,9.62,0,0,0,464.2,555.57Z"/><path class="cls-1" d="M510.65,554.14,506,558.78l-.82-.79A10.08,10.08,0,0,0,503,556.7a8.06,8.06,0,0,0-3.4-.78A5.74,5.74,0,0,0,495.9,557a3.13,3.13,0,0,0-1.34,2.5,3.08,3.08,0,0,0,1.29,2.51,9.08,9.08,0,0,0,3.25,1.53c1.3.35,2.7.79,4.2,1.31a38.9,38.9,0,0,1,4.23,1.76,8.23,8.23,0,0,1,3.26,3,8.88,8.88,0,0,1,1.29,4.88,9.7,9.7,0,0,1-3.58,7.57,13.53,13.53,0,0,1-9.3,3.14,18.34,18.34,0,0,1-4.79-.62,15.05,15.05,0,0,1-3.76-1.51,21.09,21.09,0,0,1-2.56-1.76,10.87,10.87,0,0,1-1.59-1.51l-.52-.67,4.64-4.64a8.69,8.69,0,0,0,4,3.12,9.9,9.9,0,0,0,4.62,1.17,6.7,6.7,0,0,0,4.3-1.17,3.82,3.82,0,0,0,1.43-3.12,3,3,0,0,0-1.3-2.49,9.21,9.21,0,0,0-3.24-1.54c-1.3-.36-2.7-.8-4.21-1.32a40.8,40.8,0,0,1-4.22-1.75,8,8,0,0,1-3.26-3,9.17,9.17,0,0,1,2.18-11.88,12.74,12.74,0,0,1,8.67-3,17.1,17.1,0,0,1,4,.47,12.83,12.83,0,0,1,3.16,1.16,16.87,16.87,0,0,1,2.14,1.39,15.28,15.28,0,0,1,1.34,1.13Z"/><path class="cls-1" d="M526.91,536.41a4.29,4.29,0,0,1-3.07,7.36,4.29,4.29,0,1,1,0-8.58A4.19,4.19,0,0,1,526.91,536.41Zm.49,13.79v34.3h-7.16V550.2Z"/><path class="cls-1" d="M562.05,582.44v-2.93l-.46.45a12.78,12.78,0,0,1-1.3,1,15.3,15.3,0,0,1-2.15,1.29,16.68,16.68,0,0,1-2.9,1.05,13.75,13.75,0,0,1-3.56.47,15.09,15.09,0,0,1-11.27-5,17.86,17.86,0,0,1,0-24.32,15.09,15.09,0,0,1,11.27-5,14,14,0,0,1,5.45,1.08,13.05,13.05,0,0,1,3.73,2.17l1.19,1V550.2h7.15v32.17a16.92,16.92,0,0,1-17.13,17.13,20.45,20.45,0,0,1-5.59-.75,17.82,17.82,0,0,1-4.36-1.78,26.45,26.45,0,0,1-3-2.08,10.28,10.28,0,0,1-1.85-1.81l-.59-.73,4.67-4.64c.1.13.25.33.46.57a16.35,16.35,0,0,0,1.34,1.29,15.35,15.35,0,0,0,2.18,1.64,13,13,0,0,0,3,1.29,12.22,12.22,0,0,0,3.77.58,9.44,9.44,0,0,0,7.17-3A10.69,10.69,0,0,0,562.05,582.44ZM545.65,559a11.43,11.43,0,0,0,0,15.22,8.92,8.92,0,0,0,13.52,0,11.49,11.49,0,0,0,0-15.22,8.92,8.92,0,0,0-13.52,0Z"/><path class="cls-1" d="M586.33,550.2v3.56l.46-.46a12.59,12.59,0,0,1,1.32-1,16.54,16.54,0,0,1,2.15-1.29,15.68,15.68,0,0,1,2.89-1.05,13.91,13.91,0,0,1,3.55-.47,13.2,13.2,0,0,1,10.06,4.08q3.86,4.1,3.86,11v20h-7.15v-20a8.51,8.51,0,0,0-2.36-6.14,7.78,7.78,0,0,0-5.84-2.44,8.42,8.42,0,0,0-6.51,2.63q-2.43,2.64-2.43,7.38V584.5h-7.15V550.2Z"/><rect class="cls-1" x="396.34" y="324.5" width="113.02" height="7.15"/><path class="cls-6" d="M1070.22,689c-70-80.22-150.78-29.27-208.25,61.29-53.43,84.19-21,182.73,65.72,121.9,75.5-53,121.31-37.52,155.16-73.16C1127.81,751.63,1070.16,689,1070.22,689Z"/><rect class="cls-5" x="305.25" y="121" width="5.5" height="22" rx="2.75"/><rect class="cls-5" x="305.25" y="77" width="5.5" height="22" rx="2.75"/><path class="cls-5" d="M332.82,127.51l-14.29-8.26a2.74,2.74,0,0,1-1-3.75h0a2.75,2.75,0,0,1,3.76-1l14.29,8.25a2.75,2.75,0,0,1,1,3.76h0A2.76,2.76,0,0,1,332.82,127.51Z"/><path class="cls-5" d="M294.72,105.51l-14.29-8.25a2.75,2.75,0,0,1-1-3.76h0a2.76,2.76,0,0,1,3.76-1l14.29,8.26a2.74,2.74,0,0,1,1,3.75h0A2.75,2.75,0,0,1,294.72,105.51Z"/><path class="cls-5" d="M279.42,126.5h0a2.75,2.75,0,0,1,1-3.76l14.3-8.25a2.74,2.74,0,0,1,3.75,1h0a2.75,2.75,0,0,1-1,3.75l-14.3,8.26A2.76,2.76,0,0,1,279.42,126.5Z"/><path class="cls-5" d="M317.52,104.51h0a2.74,2.74,0,0,1,1-3.75l14.29-8.26a2.76,2.76,0,0,1,3.76,1h0a2.75,2.75,0,0,1-1,3.76l-14.29,8.25A2.76,2.76,0,0,1,317.52,104.51Z"/><rect class="cls-5" x="404.25" y="197.45" width="5.5" height="22" rx="2.75"/><rect class="cls-5" x="404.25" y="153.45" width="5.5" height="22" rx="2.75"/><rect class="cls-5" x="374" y="183.7" width="22" height="5.5" rx="2.75"/><rect class="cls-5" x="418" y="183.7" width="22" height="5.5" rx="2.75"/><path class="cls-5" d="M308,937.75a35.73,35.73,0,0,1-33.76-24,2.76,2.76,0,0,1,1.92-3.58h0a2.72,2.72,0,0,1,3.26,1.71,30.26,30.26,0,0,0,57.16,0,2.73,2.73,0,0,1,3.26-1.71h0a2.76,2.76,0,0,1,1.92,3.58A35.73,35.73,0,0,1,308,937.75Z"/><path class="cls-5" d="M339.84,893.78a2.72,2.72,0,0,1-3.26-1.72,30.26,30.26,0,0,0-57.16,0,2.72,2.72,0,0,1-3.26,1.72h0a2.75,2.75,0,0,1-1.92-3.57,35.76,35.76,0,0,1,67.52,0,2.75,2.75,0,0,1-1.92,3.57Z"/><rect class="cls-5" x="844.25" y="616" width="5.5" height="22" rx="2.75"/><rect class="cls-5" x="844.25" y="572" width="5.5" height="22" rx="2.75"/><path class="cls-5" d="M871.82,622.51l-14.29-8.26a2.74,2.74,0,0,1-1-3.75h0a2.75,2.75,0,0,1,3.76-1l14.29,8.25a2.75,2.75,0,0,1,1,3.76h0A2.76,2.76,0,0,1,871.82,622.51Z"/><path class="cls-5" d="M833.72,600.51l-14.29-8.25a2.75,2.75,0,0,1-1-3.76h0a2.76,2.76,0,0,1,3.76-1l14.29,8.26a2.74,2.74,0,0,1,1,3.75h0A2.75,2.75,0,0,1,833.72,600.51Z"/><path class="cls-5" d="M818.42,621.5h0a2.75,2.75,0,0,1,1-3.76l14.3-8.25a2.74,2.74,0,0,1,3.75,1h0a2.75,2.75,0,0,1-1,3.75l-14.3,8.26A2.76,2.76,0,0,1,818.42,621.5Z"/><path class="cls-5" d="M856.52,599.51h0a2.74,2.74,0,0,1,1-3.75l14.29-8.26a2.76,2.76,0,0,1,3.76,1h0a2.75,2.75,0,0,1-1,3.76l-14.29,8.25A2.76,2.76,0,0,1,856.52,599.51Z"/><rect class="cls-5" x="1097.25" y="891" width="5.5" height="22" rx="2.75"/><rect class="cls-5" x="1097.25" y="847" width="5.5" height="22" rx="2.75"/><rect class="cls-5" x="1067" y="877.25" width="22" height="5.5" rx="2.75"/><rect class="cls-5" x="1111" y="877.25" width="22" height="5.5" rx="2.75"/><path class="cls-5" d="M1144,541.75a35.73,35.73,0,0,1-33.76-24,2.76,2.76,0,0,1,1.92-3.57h0a2.72,2.72,0,0,1,3.26,1.71,30.26,30.26,0,0,0,57.16,0,2.73,2.73,0,0,1,3.26-1.71h0a2.75,2.75,0,0,1,1.92,3.57A35.73,35.73,0,0,1,1144,541.75Z"/><path class="cls-5" d="M1175.84,497.78a2.73,2.73,0,0,1-3.26-1.71,30.26,30.26,0,0,0-57.16,0,2.72,2.72,0,0,1-3.26,1.71h0a2.76,2.76,0,0,1-1.92-3.57,35.76,35.76,0,0,1,67.52,0,2.75,2.75,0,0,1-1.92,3.57Z"/></g></g></svg>