<svg width="304" height="253" viewBox="0 0 304 253" fill="none" xmlns="http://www.w3.org/2000/svg">
<path d="M78.432 70.8078C73.6809 62.4703 68.7086 57.0078 60.8092 53.0978C52.9099 49.1878 43.1105 49.1349 39.0733 58.489C35.036 67.8431 42.9746 79.419 54.1074 80.0745C66.91 80.8174 73.7684 87.078 74.4916 96.4436C74.9406 102.267 81.0368 102.442 82.3334 98.6378C84.6848 91.7263 83.9685 80.5207 78.432 70.8078Z" fill="url(#paint0_linear)"/>
<path d="M179.1 23.0391C126.28 -34.4287 68.9044 115.612 54.1489 164.075C39.3933 212.538 101.663 220.384 143.506 229.034C210.375 242.857 240.964 216.087 246.173 183.837C251.383 151.586 231.915 80.5 179.1 23.0391Z" fill="url(#paint1_linear)"/>
<path d="M213.261 94.3828C185.205 99.5532 166.049 71.4058 153.133 54.0776C142.974 40.4501 100.311 18.0044 73.8237 58.2613C49.8192 94.7462 59.7268 149.077 97.5126 176.601C135.298 204.125 192.934 201.572 228.691 184.54C251.321 173.763 279.874 153.734 283.406 125.35C287.287 94.1643 256.327 86.4501 213.261 94.3828Z" fill="url(#paint2_linear)"/>
<path d="M246.475 158.47C230.354 140.019 211.75 151.738 198.514 172.567C186.209 191.93 193.678 214.595 213.65 200.604C231.038 188.414 241.588 191.974 249.384 183.777C259.738 172.875 246.461 158.47 246.475 158.47Z" fill="url(#paint3_linear)"/>
<defs>
<linearGradient id="paint0_linear" x1="38" y1="75.9" x2="83.6" y2="75.9" gradientUnits="userSpaceOnUse">
<stop stop-color="#18FFFF"/>
<stop offset="1" stop-color="#2961FF"/>
</linearGradient>
<linearGradient id="paint1_linear" x1="54.3216" y1="190.55" x2="226.143" y2="91.2175" gradientUnits="userSpaceOnUse">
<stop stop-color="#5022B8"/>
<stop offset="1" stop-color="#0BA1AF"/>
</linearGradient>
<linearGradient id="paint2_linear" x1="85830.8" y1="29322" x2="184364" y2="164986" gradientUnits="userSpaceOnUse">
<stop stop-color="#0493DD"/>
<stop offset="1" stop-color="#2961FF"/>
</linearGradient>
<linearGradient id="paint3_linear" x1="54214" y1="39756.6" x2="62026.7" y2="48291" gradientUnits="userSpaceOnUse">
<stop stop-color="#18FFFF"/>
<stop offset="1" stop-color="#2961FF"/>
</linearGradient>
</defs>
</svg>
