<svg width="308" height="257" viewBox="0 0 308 257" fill="none" xmlns="http://www.w3.org/2000/svg">
<path d="M281.031 110.358C274.764 87.1604 252.261 51.5121 222.745 38.3047C192.684 24.8519 142.557 19.0834 99.3114 59.4745C72.0114 84.9642 46.438 132.558 55.9114 190.572C63.8937 239.477 107.049 264.147 146.286 224.277C189.735 180.12 215.308 192.72 247.231 183.972C289.984 172.255 288.02 136.21 281.031 110.358Z" fill="url(#paint0_linear)"/>
<path d="M222.579 64.7453C192.54 55.9162 146.746 50.372 107.366 68.7779C86.0673 78.7355 55.8577 93.7069 30.7207 135.397C6.87166 174.952 44.3987 168.496 69.167 170.405C93.9353 172.314 114.637 180.272 127.575 196.502C140.513 212.733 149.385 225.144 174.893 219.735C200.401 214.326 210.749 197.773 213.843 177.351C216.195 161.812 217.404 131.897 247.347 114.18C273.343 98.8002 252.891 73.6562 222.579 64.7453Z" fill="url(#paint1_linear)"/>
<path d="M167.225 176.311C170.445 182.965 178.971 190.456 189.943 193.367C199.36 195.862 206.88 196.14 215.434 193.182C223.988 190.224 231.156 183.108 227.418 173.475C223.664 163.8 209.617 161.34 201.052 168.999C191.193 177.809 181.725 178.332 174.51 172.16C170.016 168.323 165.452 172.643 167.225 176.311Z" fill="url(#paint2_linear)"/>
<path d="M108.563 87.0856C89.747 74.2964 88.879 62.6146 77.812 57.8671C63.112 51.5589 54.656 69.8035 54.6327 69.7965C43.4373 92.3051 62.3 106.454 87.7333 112.052C111.386 117.255 130.16 101.763 108.563 87.0856Z" fill="url(#paint3_linear)"/>
<defs>
<linearGradient id="paint0_linear" x1="142.371" y1="33.0175" x2="185.668" y2="227.381" gradientUnits="userSpaceOnUse">
<stop stop-color="#FF5682"/>
<stop offset="1" stop-color="#FFE632"/>
</linearGradient>
<linearGradient id="paint1_linear" x1="73656.7" y1="148114" x2="175393" y2="2057.07" gradientUnits="userSpaceOnUse">
<stop stop-color="#FF5682"/>
<stop offset="1" stop-color="#FFE632"/>
</linearGradient>
<linearGradient id="paint2_linear" x1="-258395" y1="-109640" x2="-261910" y2="-102620" gradientUnits="userSpaceOnUse">
<stop stop-color="#FF5682"/>
<stop offset="1" stop-color="#FFE632"/>
</linearGradient>
<linearGradient id="paint3_linear" x1="33895.5" y1="20729.8" x2="14725" y2="20321" gradientUnits="userSpaceOnUse">
<stop stop-color="#FF5682"/>
<stop offset="1" stop-color="#FFE632"/>
</linearGradient>
</defs>
</svg>
