<svg width="315" height="262" viewBox="0 0 315 262" fill="none" xmlns="http://www.w3.org/2000/svg">
<path d="M228.112 40.4719C212.04 31.9878 202.509 44.0113 197.939 48.6963C193.369 53.3813 178.409 63.5589 160.712 36.8372C139.645 5.01375 98.7453 5.81642 78.0508 35.4891C59.5469 62.0107 67.5699 93.2982 77.5329 110.338C87.496 127.377 94.4164 147.825 80.1412 170.957C65.866 194.09 75.2372 222.626 97.9745 231.67C122.566 241.445 175.159 247.583 213.544 198.665C237.999 167.497 247.287 130.419 247.993 101.011C248.7 71.6023 244.187 48.9583 228.112 40.4719Z" fill="url(#paint0_linear)"/>
<path d="M276.871 131.605C264.015 92.9481 228.062 62.7871 160.772 56.8612C102.673 51.745 49.6363 84.5974 34.8743 109.397C20.1123 134.196 40.8402 146.741 88.8729 155.485C137.772 164.381 155.944 189.012 157.467 209.028C158.989 229.045 169.398 261.919 212.024 240.742C254.649 219.566 289.726 170.262 276.871 131.605Z" fill="url(#paint1_linear)"/>
<path d="M96.4687 71.9881C90.541 55.3701 76.829 45.0735 64.7993 40.9959C52.7696 36.9182 47.6175 40.61 47.1044 47.453C46.5913 54.2959 43.0166 57.2422 34.397 57.7877C25.7775 58.3331 17.3942 65.3976 22.6132 74.5104C29.042 85.7359 38.5374 79.598 53.5571 87.8367C68.0638 95.7943 78.4397 109.445 89.1306 107.168C104.742 103.847 99.3395 80.0291 96.4687 71.9881Z" fill="url(#paint2_linear)"/>
<path d="M109.551 142.14C89.5053 146.005 74.8912 156.338 84.2935 173.287C84.3102 173.287 91.4383 187.016 102.948 182.483C111.61 179.07 112.028 170.357 126.647 161.047C143.421 150.348 128.181 138.543 109.551 142.14Z" fill="url(#paint3_linear)"/>
<defs>
<linearGradient id="paint0_linear" x1="68.8489" y1="43.3944" x2="219.325" y2="194.157" gradientUnits="userSpaceOnUse">
<stop stop-color="#2961FF"/>
<stop offset="1" stop-color="#18FFFF"/>
</linearGradient>
<linearGradient id="paint1_linear" x1="105417" y1="161602" x2="206146" y2="30267.2" gradientUnits="userSpaceOnUse">
<stop stop-color="#2961FF"/>
<stop offset="1" stop-color="#18FFFF"/>
</linearGradient>
<linearGradient id="paint2_linear" x1="9985.98" y1="14538.9" x2="31994.6" y2="29227.4" gradientUnits="userSpaceOnUse">
<stop stop-color="#2961FF"/>
<stop offset="1" stop-color="#18FFFF"/>
</linearGradient>
<linearGradient id="paint3_linear" x1="18599.1" y1="30604.8" x2="27727.2" y2="24004.8" gradientUnits="userSpaceOnUse">
<stop stop-color="#2961FF"/>
<stop offset="1" stop-color="#18FFFF"/>
</linearGradient>
</defs>
</svg>
