<svg width="308" height="257" viewBox="0 0 308 257" fill="none" xmlns="http://www.w3.org/2000/svg">
<g clip-path="url(#clip0)">
<path d="M208.601 15.0049C185.738 7.60885 143.585 7.03287 116.419 24.5731C88.7503 42.4354 56.581 81.3086 66.8569 139.584C73.337 176.368 99.2876 223.757 153.083 247.451C198.43 267.427 242.642 244.705 230.617 190.074C217.295 129.574 241.801 115.008 251.876 83.4794C265.368 41.2522 234.081 23.2438 208.601 15.0049Z" fill="url(#paint0_linear)"/>
<path d="M43.3667 189.222C70.0973 205.525 112.896 222.732 155.698 215.146C178.848 211.04 211.903 204.398 246.974 170.634C280.247 138.6 242.328 135.123 218.898 126.868C195.468 118.614 177.531 105.57 169.235 86.5432C160.938 67.5168 155.581 53.2329 129.542 51.8553C103.504 50.4777 89.2237 63.7885 80.9495 82.714C74.6558 97.1149 65.7458 125.698 32.237 135.061C3.14641 143.189 16.3935 172.769 43.3667 189.222Z" fill="url(#paint1_linear)"/>
<path d="M167.226 81.832C170.446 88.486 178.972 95.9764 189.943 98.8875C199.36 101.383 206.881 101.661 215.435 98.7029C223.989 95.7451 231.157 88.6285 227.419 78.9957C223.664 69.3208 209.618 66.8606 201.052 74.5192C191.194 83.3296 181.725 83.853 174.51 77.6803C170.016 73.844 165.452 78.1639 167.226 81.832Z" fill="url(#paint2_linear)"/>
<path d="M124.229 203.545C105.413 190.756 104.545 179.074 93.4778 174.326C78.7778 168.018 70.3218 186.263 70.2985 186.256C59.1032 208.764 77.9658 222.913 103.399 228.511C127.052 233.714 145.826 218.222 124.229 203.545Z" fill="url(#paint3_linear)"/>
</g>
<defs>
<linearGradient id="paint0_linear" x1="68.1594" y1="89.0632" x2="254.694" y2="158.755" gradientUnits="userSpaceOnUse">
<stop stop-color="#FF5682"/>
<stop offset="1" stop-color="#FFE632"/>
</linearGradient>
<linearGradient id="paint1_linear" x1="-32570.5" y1="-161822" x2="-168643" y2="-47072.7" gradientUnits="userSpaceOnUse">
<stop stop-color="#FF5682"/>
<stop offset="1" stop-color="#FFE632"/>
</linearGradient>
<linearGradient id="paint2_linear" x1="-258395" y1="-109735" x2="-261910" y2="-102714" gradientUnits="userSpaceOnUse">
<stop stop-color="#FF5682"/>
<stop offset="1" stop-color="#FFE632"/>
</linearGradient>
<linearGradient id="paint3_linear" x1="33911.1" y1="20846.2" x2="14740.6" y2="20437.5" gradientUnits="userSpaceOnUse">
<stop stop-color="#FF5682"/>
<stop offset="1" stop-color="#FFE632"/>
</linearGradient>
<clipPath id="clip0">
<rect width="308" height="257" fill="white"/>
</clipPath>
</defs>
</svg>
