<svg width="172" height="172" viewBox="0 0 172 172" fill="none" xmlns="http://www.w3.org/2000/svg">
<path d="M170.37 162.642L125.962 118.944C137.591 106.31 144.736 89.6007 144.736 71.2139C144.731 31.881 112.333 0 72.3662 0C32.399 0 0.00170898 31.881 0.00170898 71.2139C0.00170898 110.547 32.399 142.428 72.3662 142.428C89.6347 142.428 105.473 136.455 117.914 126.525L162.494 170.395C164.666 172.535 168.192 172.535 170.365 170.395C172.542 168.255 172.542 164.782 170.37 162.642ZM72.3662 131.471C38.5496 131.471 11.136 104.493 11.136 71.2139C11.136 37.9347 38.5496 10.9567 72.3662 10.9567C106.183 10.9567 133.596 37.9347 133.596 71.2139C133.596 104.493 106.183 131.471 72.3662 131.471Z" fill="white"/>
</svg>
